<svg version="1.1" xmlns="http://www.w3.org/2000/svg" style="display: block;" viewBox="0 0 2048 2048" width="1024" height="1024" preserveAspectRatio="none">
<path transform="translate(0,0)" fill="rgb(0,0,0)" d="M 1894.04 526.726 L 1895.3 527.668 C 1898.39 538.274 1898.32 569.672 1897.68 580.97 C 1892.99 664.056 1852.61 734.869 1791.57 789.547 C 1830.2 769.683 1878.59 746.104 1918.31 729.377 C 1910.8 838.766 1860.33 921.996 1754.98 960.297 C 1792.67 955.506 1831 949.27 1868.85 946.062 C 1840.49 997.758 1795.78 1034.35 1741.73 1056.59 C 1769.81 1052.87 1808.69 1055.04 1838.81 1052.23 C 1836.58 1056.88 1834.11 1061.42 1831.43 1065.84 C 1803.63 1112.11 1763.81 1140.44 1711.61 1153.41 L 1773.5 1159.32 C 1772.02 1161.22 1770.5 1163.08 1768.95 1164.91 C 1739.67 1199.26 1702.66 1217.61 1657.61 1221.2 L 1734.43 1242.04 C 1694.94 1291.56 1639.12 1315 1576.37 1310.76 C 1603.44 1325.54 1626.76 1336.5 1654.03 1353 C 1604.44 1380.58 1542.08 1390.19 1488.45 1368.33 C 1506.21 1384.12 1535.18 1410.54 1550.46 1427.26 C 1503.97 1431.86 1451.61 1433.6 1407.75 1416.18 C 1420.52 1429.51 1443.02 1457.84 1454.09 1472.81 L 1433.56 1473.63 C 1396.49 1472.82 1373.15 1466.99 1341.9 1447.03 C 1352.17 1466.02 1364.35 1486.41 1375.26 1505.16 C 1337.89 1501.09 1298.77 1491.97 1270.47 1465.37 C 1276.79 1480.56 1284.74 1504.35 1289.6 1519.82 C 1283.02 1519.09 1276.51 1517.91 1270.09 1516.28 C 1237.87 1507.96 1215.1 1488.5 1198.39 1460.06 C 1194.66 1478.16 1189.82 1496.76 1186.51 1514.65 C 1134.29 1470.38 1126.2 1436.99 1124.98 1370.15 L 1113.64 1363.59 L 1108.09 1399.01 C 1079.39 1357.92 1069.37 1303.17 1060.97 1254.77 C 1077.12 1246.76 1093.86 1238.94 1107.99 1227.96 C 1160.38 1187.23 1150.16 1130.9 1133.69 1074.35 C 1129.51 1058.02 1122.13 1040.28 1124.61 1023.16 C 1127.68 1001.96 1148.52 982.691 1164.89 970.429 C 1184.01 956.112 1205.61 944.583 1227.12 934.34 C 1255.89 920.636 1284.76 907.588 1313.08 892.929 C 1387.81 854.002 1458.87 808.406 1525.4 756.694 C 1524.89 779.913 1514.44 817.209 1505.74 838.067 C 1519.77 826.748 1538.21 814.482 1553.23 803.584 C 1580.84 783.348 1608.29 762.886 1635.57 742.203 C 1724.8 674.147 1811.04 602.254 1894.04 526.726 z M 1544.37 929.932 C 1531.55 969.592 1499.87 994.078 1464.06 1013.05 L 1463.78 1014.31 C 1512.57 1003.29 1561.45 992.686 1610.41 982.498 C 1704.18 962.194 1808.83 942.605 1864.27 854.582 C 1879.95 829.705 1889.62 802.058 1895.29 773.301 C 1895.89 770.24 1897.9 759.688 1897.84 756.915 C 1831.86 788.084 1768.67 819.833 1703.34 851.534 L 1600.37 902.206 C 1582.56 911.002 1561.55 920.673 1544.37 929.932 z M 1136.95 1230.16 L 1138.42 1230.82 C 1162.17 1219.55 1188.07 1196.76 1197.52 1171.53 C 1210.04 1138.48 1182.05 1101.48 1198.72 1069.38 C 1204.9 1057.48 1225.45 1043.75 1237.05 1037.33 C 1328.15 986.938 1432.99 944.251 1484.15 846.841 C 1489.36 836.924 1502.39 807.928 1503.53 796.702 L 1502.88 795.95 C 1458.12 836.144 1402.59 870.721 1350.98 901.673 C 1298.62 932.718 1239.92 955.36 1190.47 990.774 C 1176.54 1000.75 1157.2 1021.93 1158.62 1039.87 C 1164.26 1111.19 1193.43 1168.73 1136.95 1230.16 z M 1492.38 1081.52 C 1476.84 1098.46 1461.73 1109.11 1440.75 1118.88 C 1454 1120.85 1467.5 1123 1480.76 1124.79 C 1484.87 1125 1493.93 1125.03 1497.18 1126.44 L 1497.08 1129.13 C 1501.89 1130.97 1537.16 1134.76 1544.25 1135.52 C 1607.79 1142.34 1677.73 1153.45 1738.05 1126.36 C 1765.28 1114.13 1792.88 1093.4 1809.98 1068.87 L 1793.64 1069.45 L 1629.88 1075.19 C 1585.05 1077.19 1536.98 1080.53 1492.38 1081.52 z M 1452.65 1195.87 C 1441.18 1212.55 1431.12 1222.71 1414.32 1233.62 C 1490.2 1264.78 1554.45 1313.94 1639.34 1287.01 C 1665.9 1277.39 1681.63 1269.07 1702.26 1250.09 C 1639.04 1230.78 1574.28 1215.25 1510.18 1199.02 C 1500.22 1196.5 1437.91 1180.21 1430.63 1180.9 C 1422.35 1185.82 1416.9 1188.62 1407.5 1191.33 C 1422.67 1192.2 1437.58 1194.03 1452.65 1195.87 z M 1207.54 1092.99 C 1229.93 1086.82 1252.12 1079.48 1274.38 1072.83 C 1348.02 1050.84 1486.07 1010.61 1526.27 940.076 C 1531.96 930.094 1542.14 905.881 1540.91 894.953 C 1506.75 914.01 1472.72 933.315 1438.84 952.868 C 1364.08 995.814 1288.05 1036.5 1210.85 1074.88 C 1209.65 1079.53 1207.26 1088.33 1207.54 1092.99 z M 1208.78 1108.45 C 1209.45 1114.26 1210.15 1122.53 1211.66 1127.96 C 1213.5 1128.92 1212.73 1128.78 1213.84 1128.9 C 1245.88 1130.33 1279.23 1130.44 1311.03 1128.78 C 1369.52 1125.73 1437.91 1121.69 1480.13 1075.69 C 1487.88 1067.24 1503.74 1042.17 1504.89 1030.94 L 1503.77 1029.87 L 1502.12 1030.21 C 1430.34 1047.88 1357.73 1063.32 1286.82 1084.26 C 1262.77 1091.37 1231.76 1099.29 1208.78 1108.45 z M 1335.74 1307.14 C 1329.59 1304.92 1323.74 1302.58 1317.73 1300 C 1263.65 1276.78 1207.16 1257.91 1155.85 1228.69 C 1151.46 1231.59 1146.54 1235.02 1142.05 1237.64 C 1184.63 1275.54 1258.1 1332.12 1318.24 1313.87 C 1325.75 1311.7 1328.63 1310.48 1335.74 1307.14 z M 1331.92 1483.39 C 1338.25 1485.08 1345.41 1487.16 1351.73 1488.49 C 1334.7 1458.52 1321.04 1435.26 1301.17 1406.87 C 1287.81 1387.8 1270.84 1366.12 1258.59 1347.04 C 1250.92 1346.26 1241.63 1345.69 1234.46 1343.21 C 1238 1350.71 1247.2 1358.77 1252.18 1367.37 C 1243.41 1370.52 1236.85 1372.26 1227.57 1373.74 C 1249.08 1420.99 1265.01 1458.84 1317.14 1478.31 C 1322.02 1480.14 1326.95 1481.83 1331.92 1483.39 z M 1360.3 1306.73 C 1347.29 1315.3 1337.46 1319.72 1322.6 1324.78 C 1372.9 1372.61 1387.32 1405.49 1460.77 1414.85 C 1477.65 1416.23 1503.46 1417.29 1520.22 1414.94 C 1481.71 1378.44 1444.52 1347.03 1401.85 1315.43 C 1390.35 1306.92 1369.62 1289.88 1357.75 1283.01 C 1347.18 1287.97 1341.47 1290.01 1330.04 1292.52 C 1340.73 1297.14 1350.07 1301.07 1360.3 1306.73 z M 1151.72 1376.14 C 1147.31 1375.16 1142.22 1374.16 1137.91 1373.02 C 1139.22 1422.52 1142.62 1451.74 1176.71 1488.48 L 1178.52 1489.57 C 1179.89 1487.8 1188.14 1447.1 1187.6 1443.79 C 1183.84 1420.49 1172.4 1383.55 1166.06 1361.17 C 1158.05 1360.92 1154.52 1361.18 1147.03 1358.52 C 1148.48 1363.83 1150.61 1370.92 1151.72 1376.14 z M 1108.97 1251.83 C 1131.34 1289.68 1162.25 1349.03 1207.35 1359.6 C 1212.52 1360.81 1219.1 1361.63 1224.41 1362.1 C 1227.71 1361.88 1231.57 1361.73 1234.81 1361.39 C 1219.41 1345.35 1200.77 1329.13 1184.47 1313.65 C 1168.85 1298.79 1153.85 1283.28 1139.51 1267.18 C 1135.69 1262.96 1123.7 1247.45 1120.14 1246.92 C 1116.59 1248.49 1112.51 1250.42 1108.97 1251.83 z M 1135.07 1361.36 C 1123.11 1329.82 1101.43 1297.54 1089.95 1265.02 C 1089.46 1263.62 1088.22 1262.98 1087.01 1262.36 C 1086.75 1284.87 1097.02 1332.25 1114.39 1348.08 C 1122.42 1355.4 1125.56 1357.15 1135.07 1361.36 z M 1429.14 1205.44 C 1394.71 1199.78 1352.08 1198.99 1316.54 1195.41 C 1292.33 1192.95 1268.18 1189.95 1244.1 1186.42 C 1231.77 1184.63 1218.61 1182.03 1206.4 1180.69 C 1200.8 1190.79 1197.87 1195.59 1190.35 1204.32 C 1228.11 1222.22 1268.36 1234.76 1309.57 1241.6 C 1342.44 1247.06 1367.66 1244.24 1397.5 1229.41 C 1412.49 1220.79 1416.36 1217.07 1429.14 1205.44 z"/>
<path transform="translate(0,0)" fill="rgb(0,0,0)" d="M 151.282 531.49 C 157.562 535.233 182.613 558.083 189.85 564.241 C 225 594.613 260.361 624.741 295.928 654.625 C 376.064 719.881 458.193 782.651 542.199 842.845 C 529.329 814.366 523.918 791.708 521.608 760.888 C 540.216 776.254 565.728 793.457 585.692 806.974 C 630.242 837.709 676.638 865.679 724.618 890.724 C 755.196 906.621 786.582 920.684 817.835 935.367 C 852.817 951.885 888.96 970.47 912.74 1002.04 C 922.18 1014.57 925.022 1031.34 920.955 1046.39 C 908.899 1091 890.025 1139.36 906.428 1185.42 C 919.203 1221.28 954.16 1240.5 986.505 1255.61 C 983.891 1264.64 981.226 1283.85 979.041 1293.97 C 971.136 1330.58 961.024 1366.16 940.436 1397.87 C 937.66 1386.23 935.917 1375.5 932.785 1363.52 C 928.865 1365.41 926.738 1367.02 923.14 1369.54 C 922.48 1399.28 920.797 1431.46 908.259 1458.79 C 899.387 1478.14 879.799 1502.91 861.743 1514.23 C 857.675 1499.14 852.837 1475.99 849.874 1460.55 C 848.826 1462.57 847.677 1464.53 846.431 1466.43 C 823.049 1501.94 798.231 1513.66 758.353 1521.45 C 764.141 1504.33 770.964 1482.61 777.805 1466.29 C 742.686 1494.82 717.515 1500.35 673.403 1505.19 C 683.46 1486.99 694.474 1465.75 705.473 1448.45 C 673.848 1467.12 658.047 1471.75 622.225 1475.01 C 613.89 1475.12 603.035 1474.21 594.534 1473.74 C 603.332 1460.51 629.039 1427.9 640.236 1416.37 C 587.895 1437.37 551.743 1430.96 497.713 1429.04 C 513.837 1411.06 540.351 1384.41 559.404 1369.99 C 554.121 1371.85 548.773 1373.52 543.372 1375.01 C 491.939 1389.37 438.906 1381.14 392.67 1355.19 C 417.602 1340.64 443.598 1327.3 468.761 1312.87 C 461.988 1312.97 455.214 1312.93 448.443 1312.74 C 387.618 1310.88 353.123 1287.44 313.185 1244.74 C 331.892 1237.92 366.923 1229.96 387.901 1224.38 C 385.556 1224.09 383.217 1223.74 380.887 1223.35 C 339.084 1216.21 299.937 1198.41 274.747 1163.17 C 290.472 1160.31 316.868 1157.04 332.507 1155.87 C 276.811 1143.75 233.24 1107.2 209.165 1055.9 C 240.405 1056.63 271.636 1057.74 302.849 1059.23 C 252.993 1038.52 202.16 999.565 178.188 950.37 C 210.734 953.581 258.59 959.553 290.743 964.575 C 188.7 926.012 132.605 843.232 128.837 734.686 C 167.685 751.706 218.56 775.515 256.199 796.009 C 243.678 786.165 223.727 763.985 213.381 751.283 C 159.581 685.238 143.674 613.931 151.282 531.49 z M 501.625 934.017 C 420.64 893.542 339.425 853.526 257.986 813.971 C 221.993 796.575 184.295 779.729 148.771 761.547 C 159.897 826.768 181.514 877.313 237.32 917.579 C 289.94 955.547 355.229 968.562 417.531 981.707 L 515.727 1002.19 C 529.904 1005.14 544.051 1008.24 558.165 1011.49 C 564.012 1012.83 581.285 1017.11 586.785 1017.09 C 545.342 994.189 520.857 978.525 501.625 934.017 z M 908.267 1229.38 C 885.32 1207.65 876.161 1178.71 875.42 1147.76 C 875.214 1135.06 876.147 1122.36 878.206 1109.82 C 881.607 1088.16 892.011 1050.33 885.878 1029.62 C 878.777 1005.64 846.022 984.166 825.499 972.663 C 796.307 956.74 766.246 941.928 736.752 926.56 C 707.059 911.099 678.004 894.443 649.656 876.634 C 624.796 861.117 600.649 844.485 577.289 826.791 C 571.138 822.196 547.239 802.863 543.072 800.441 C 545.404 811.958 550.353 823.239 554.895 833.996 C 600.731 942.536 718.841 987.955 814.003 1041.81 C 873.301 1075.37 848.911 1099.91 846.242 1152.75 C 844.946 1178.4 869.742 1207.31 889.629 1219.97 C 893.355 1222.52 905.641 1230.84 909.522 1231.12 C 909.122 1230.53 908.817 1229.83 908.267 1229.38 z M 581.572 1124.83 C 589.872 1123.62 598.321 1122.27 606.661 1121.53 C 583.775 1109.31 573.702 1104.06 555.446 1084.98 C 506.769 1080.82 447.282 1079.83 397.381 1077.51 C 362.431 1075.6 327.453 1074.23 292.461 1073.4 C 276.63 1072.91 255.225 1071.68 239.829 1072.26 C 305.805 1177.67 450.595 1142.47 552.05 1131.93 C 553.818 1128.72 550.171 1127.75 552.992 1127.46 C 562.81 1126.44 571.658 1126.27 581.572 1124.83 z M 345.398 1251.64 C 363.994 1270.48 385.215 1282.07 410.256 1290.19 C 493.381 1312.35 558.918 1268.03 633.461 1235.43 C 619.928 1224.95 604.547 1212.16 595.446 1197.36 C 610.028 1195.45 625.136 1193.46 639.793 1192.26 C 630.617 1189.39 623.809 1186.97 615.97 1181.24 C 615.908 1181.21 615.845 1181.18 615.783 1181.16 C 593.867 1187.59 571.135 1192.23 549.031 1198.13 C 481.7 1216.1 412.133 1231.94 345.398 1251.64 z M 839.87 1109.57 C 741.438 1079.67 641.864 1053.67 541.381 1031.63 C 578.066 1140.87 708.513 1127.73 802.556 1131.14 C 812.39 1131.5 824.776 1131.66 834.514 1130.85 C 836.426 1129.58 835.93 1130.4 836.458 1128.76 C 837.446 1121.71 838.321 1116.5 839.87 1109.57 z M 839.944 1094.45 C 839.796 1087.4 839.363 1085.02 838.055 1078.18 C 824.637 1070.24 805.682 1062.27 791.125 1054.97 C 761.433 1039.96 731.985 1024.47 702.792 1008.52 L 562.32 930.144 C 544.205 920.054 523.572 907.385 505.324 898.307 C 514.053 939.67 530.734 968.775 567.29 991.502 C 649.765 1042.78 748.598 1066.41 839.944 1094.45 z M 527.339 1415.98 C 544.717 1416.96 576.254 1418.45 592.835 1414.86 C 623.561 1410.19 654.336 1398.04 676.272 1375.43 C 692.161 1359.05 709.981 1343.17 724.637 1325.73 C 712.896 1321.16 698.889 1315.83 689.364 1307.4 C 699.119 1301.98 708.788 1297.18 718.759 1292.19 C 708.265 1291.46 698.075 1288.34 688.963 1283.09 C 674.934 1292.16 660.92 1304.79 647.522 1315.01 C 612.554 1341.66 578.204 1369.01 545.953 1398.93 C 540.16 1404.31 533.491 1411.2 527.339 1415.98 z M 890.572 1229.85 C 833.401 1262.29 771.04 1281.13 712.619 1308.35 C 719.63 1311.65 722.72 1312.53 730.22 1314.67 C 797.308 1330.37 857.301 1277.62 905.869 1238.23 C 900.94 1235.45 895.633 1232.29 890.572 1229.85 z M 870.075 1489.73 C 872.396 1487.34 875.112 1484.67 877.297 1482.2 C 907.299 1446.26 908.604 1419.23 910.806 1373.86 L 895.678 1377.08 C 896.398 1373.86 900.26 1360.62 899.761 1359.17 L 898.324 1359.37 C 891.781 1360.43 888.039 1360.97 881.427 1361.26 C 876.285 1386.54 864.718 1414.9 860.678 1439.84 C 859.241 1448.71 867.042 1480.43 870.075 1489.73 z M 814.123 1361.18 C 820.265 1361.44 823.062 1361.53 829.247 1360.93 C 882.741 1356.47 912.533 1294.12 937.303 1253.48 C 933.542 1251.52 928.136 1248.93 924.612 1246.86 C 918.379 1256.21 911.417 1263.87 903.85 1272.09 C 875.322 1303.11 843.294 1330.81 814.123 1361.18 z M 914.83 1360.57 C 933.526 1352.49 941.134 1342.14 949.101 1323.53 C 954.11 1311.84 963.564 1273.81 959.345 1262.58 C 953.886 1272.76 949.437 1284.82 944.074 1295.54 C 933.665 1316.34 922.752 1337.46 914.088 1359.05 C 914.335 1359.56 914.583 1360.06 914.83 1360.57 z M 822.386 1372.4 C 811.64 1371.7 805.141 1371.06 794.664 1368.25 C 800.053 1361.7 807.774 1351.74 813.618 1346.01 L 812.942 1345.48 C 803.474 1347.31 798.802 1347.13 789.134 1347.12 C 756.039 1398.83 725.172 1431.25 696.296 1489.71 C 704.748 1487.66 713.311 1485.73 721.589 1483.1 C 781.17 1461.5 793.787 1430.67 820.496 1376.66 C 821.188 1375.26 821.785 1373.85 822.386 1372.4 z M 856.48 1205.14 C 853.313 1201.02 841.162 1181.57 839.863 1181.32 C 807.16 1186.44 776.411 1191.95 743.376 1195.28 C 702.701 1199.39 658.137 1200.37 617.967 1206.12 C 627.719 1216.37 639.092 1224.94 651.63 1231.48 C 702.003 1256.55 762.845 1240.17 813.657 1223.11 C 828.37 1218.23 842.687 1212.22 856.48 1205.14 z"/>
</svg>