<svg version="1.1" xmlns="http://www.w3.org/2000/svg" style="display: block;" viewBox="0 0 2048 2048" width="1024" height="1024" preserveAspectRatio="none">
<path transform="translate(0,0)" fill="rgb(64,64,63)" d="M 1023.13 121.612 C 1043.57 164.59 1060.69 221.648 1082.44 262.572 C 1092.75 266.388 1111.46 269.517 1123.12 271.87 C 1127.15 280.211 1131.73 294.164 1134.98 303.309 C 1161.2 311.125 1193.07 318.027 1219.79 324.151 C 1230.31 316.595 1240.36 307.525 1251.13 299.662 C 1258.36 304.083 1262.99 307.167 1271.43 309.025 C 1313.1 294.735 1323.23 260.711 1354.62 241.56 C 1355.75 254.756 1358.39 276.807 1360.39 289.631 C 1362.88 305.588 1364.56 371.687 1377.63 378.045 C 1401.18 389.499 1431.27 404.319 1455.47 413.87 C 1471.66 410.937 1496.43 402.31 1510.58 405.621 C 1515.84 406.85 1532.09 413.666 1538.05 415.95 C 1545.45 412.628 1552.66 406.207 1559.12 403.74 C 1566.62 400.875 1577.95 397.957 1585.96 395.668 C 1600.87 391.447 1615.73 387.024 1630.53 382.398 C 1687.77 364.634 1750.41 345.421 1807.01 325.961 C 1801.98 335.872 1787.6 356.613 1781.13 366.371 L 1729.84 443.748 L 1677.33 524.875 C 1671.43 533.981 1665.02 543.629 1659.37 552.818 C 1650.1 567.914 1642.76 571.381 1625.31 572.363 C 1621.36 580.718 1615.39 590.046 1612.12 598.549 C 1610.63 602.339 1609.69 606.321 1609.31 610.376 C 1607.41 631.034 1611.34 657.91 1609.81 679.165 C 1609.39 684.942 1620.89 704.628 1626.14 707.129 C 1658.07 722.346 1696.32 727.066 1729.52 739.591 L 1730.81 740.087 C 1720.07 747.551 1636.9 811.11 1632.25 817.947 C 1626.03 827.09 1625.61 840.622 1620.6 850.873 L 1619.94 852.21 C 1606.16 860.481 1599.94 864.783 1589.34 876.684 C 1587.31 889.375 1587.21 924.537 1587.16 938.658 L 1586.88 1036.99 C 1586.18 1106.29 1583.3 1175.89 1583.82 1245.24 C 1584 1268.2 1582.93 1292.1 1583.76 1314.96 C 1595.62 1333.43 1584.31 1347.86 1590.57 1363.72 C 1601.16 1390.55 1619.08 1416.56 1629.94 1443.67 C 1601.61 1445.93 1564.75 1451.48 1536.59 1456.03 C 1518.77 1458.91 1517.08 1475.87 1490.15 1477.38 C 1479.42 1484.9 1450.71 1513.7 1440.09 1523.9 L 1335.99 1623.96 C 1274.2 1682.27 1212.07 1740.23 1149.62 1797.83 C 1128.21 1817.54 1106.28 1836.72 1084.69 1856.28 C 1078.38 1860.72 1078.75 1871.37 1074.18 1876.58 C 1060.07 1892.67 1043.31 1906.8 1027.84 1921.61 C 1025.47 1923.88 1026.11 1923.46 1023.26 1923.22 C 1016.18 1917.83 978.743 1886.81 975.59 1880.32 C 963.283 1855.01 956.082 1853.05 935.145 1833.47 L 868.01 1770.35 L 678.919 1592.45 C 649.603 1564.22 619.997 1536.29 590.108 1508.66 C 581.406 1500.58 565.992 1483.71 556.009 1478.5 C 551.195 1475.99 544.69 1477.39 539.538 1474.77 C 529.871 1469.86 522.782 1460.07 512.698 1455.86 C 502.655 1451.66 429.711 1444.58 415.972 1443.78 C 428.784 1417.04 445.136 1390.45 456.43 1363.43 C 463.314 1346.97 450.893 1332.95 464.412 1313.15 C 464.188 1305.63 464.081 1297.82 464.196 1290.26 C 465.123 1229.26 461.485 1168.16 463.965 1107.26 C 464.297 1099.12 460.303 1088.91 460.139 1079.37 L 457.94 876.313 C 432.264 851.422 426.713 862.941 418.435 819.764 C 389.236 793.813 348.203 768.924 318.884 740.81 C 326.764 737.424 335.153 735.523 342.745 732.577 C 389.234 714.538 446.614 720.444 438.098 652.135 C 436.603 640.144 440.556 618.977 437.326 606.632 C 434.257 594.905 427.241 583.183 422.601 571.859 C 396.717 573.344 391.785 557.36 379.308 538.174 L 347.769 489.704 C 312.036 434.675 275.894 379.913 239.344 325.422 C 294.636 344.111 350.203 361.976 406.025 379.013 C 433.111 387.31 460.559 394.647 487.458 403.434 C 494.555 405.753 502.568 413.036 511.081 416.386 C 529.51 409.546 538.807 400.76 560.335 406.294 C 570.33 408.863 581.417 411.28 591.533 413.784 C 618.286 401.786 644.937 389.565 671.486 377.122 C 686.469 345.215 686.032 278.304 692.333 241.033 C 716.023 258.722 736.679 287.56 761.637 303.281 C 765.761 305.878 773.725 308.111 778.64 309.459 C 786.643 306.973 789.376 304.492 796.047 299.544 C 805.564 306.185 818.155 317.67 826.601 325.684 C 853.436 318.034 885.277 309.614 912.555 303.69 C 915.341 293.661 917.935 284.18 921.304 274.306 C 934.691 270.575 950.221 267.993 964.332 264.259 C 968.976 254.91 974.946 238.517 979.077 228.285 L 1007.61 157.827 C 1011.66 147.834 1018.07 130.394 1023.13 121.612 z M 1286.23 982.794 C 1282.59 970.097 1279.22 957.961 1274.34 945.641 C 1259.96 973.261 1245.29 1000.73 1230.32 1028.03 C 1192.99 1029.2 1154.77 1028.46 1117.31 1029.05 C 1127.97 1045 1139.36 1060.45 1151.45 1075.35 C 1128.2 1056.97 1099.8 1037.24 1077.85 1018.19 C 1085.93 1036.75 1097.8 1057.78 1104.47 1076.06 C 1100.04 1092.94 1092.91 1108.53 1088.89 1124.87 C 1087.81 1113.55 1086.13 1090.94 1083.38 1081.04 C 1078.04 1061.86 1062.52 1038.32 1053.05 1020.1 C 1052.71 1031.97 1051.95 1044.41 1051.78 1056.12 C 1046.25 1038.17 1033.92 998.19 1023.76 982.77 C 1009.95 1006.89 1004.73 1029.32 994.958 1054.91 C 995.198 1042.17 994.176 1033.07 993.856 1020.9 C 988.216 1027.5 984.395 1036.71 980.272 1044.09 C 962.584 1075.76 961.906 1091.03 957.909 1126.11 C 953.493 1112.76 945.395 1089.42 943.048 1076.07 C 947.836 1061.48 962.339 1033.38 969.626 1018.47 C 949.392 1033.68 914.379 1060.49 895.609 1076.85 C 906.924 1059.7 921.448 1043.73 932.149 1027.82 C 916.925 1029.63 895.088 1028.66 879.199 1028.38 C 860.004 1028.05 836.175 1028.99 817.359 1027.47 C 801.356 999.784 787.564 974.093 772.711 945.817 C 769.169 955.613 762.372 972.483 761.102 982.24 C 757.623 973.403 742.794 929.05 741.652 920.852 C 735.852 926.322 720.13 940.873 716.828 946.975 C 707.271 964.635 701.944 1001.32 697.784 1022.03 C 713.233 1042.34 744.518 1076 763.332 1094.81 C 787.613 1091.84 817.892 1088.45 842.077 1090.72 C 844.937 1090.99 887.614 1112.98 889.397 1115.06 C 913.174 1142.7 928.284 1181.15 948.528 1211.52 C 946.901 1195.34 944.569 1176.7 943.583 1160.66 C 948.101 1170.54 962.198 1198.99 964.283 1207.31 C 970.334 1231.49 974.675 1262.5 978.944 1287.66 L 1006.19 1440.04 C 1010.54 1465.63 1017.14 1514.87 1023.66 1537.91 L 1060.57 1333.23 L 1076.34 1244.16 C 1079.2 1228.43 1080.75 1212.02 1086.88 1197.23 C 1092.35 1184.03 1097.79 1170.63 1103.92 1157.71 C 1103.58 1174.24 1101.03 1199.02 1097.56 1215.42 C 1103.97 1202.4 1151.31 1118.78 1156.48 1114.53 C 1164.45 1107.99 1191.79 1095.71 1202.25 1091.89 C 1218.39 1085.98 1265.83 1092.38 1284.09 1094.43 C 1305.76 1070.62 1327.82 1047.48 1349.11 1023.34 C 1348.1 1017.74 1347.07 1012.4 1346.41 1006.74 C 1342.63 987.935 1338.74 969.157 1334.73 950.403 C 1326.44 941.464 1313.98 927.267 1304.44 920.341 C 1302.01 935.682 1291.6 967.821 1286.23 982.794 z M 1133.18 793.537 C 1113.95 808.057 1080.31 832.472 1063.16 848.13 C 1056.65 880.214 1051.96 913.806 1046.08 946.274 C 1054.61 958.895 1069.72 981.265 1079.46 992.366 C 1132.03 962.832 1183.86 930.749 1235.83 900.111 L 1329.39 845.116 C 1312.79 807.841 1298.56 765.315 1281.22 729.137 C 1274.4 746.263 1249.48 811.711 1239.17 822.033 C 1231.97 829.251 1183.63 859.202 1171.85 867.46 C 1184 854.716 1229 809.732 1232.77 796.812 C 1246.52 749.608 1235.45 720.875 1273.87 680.963 C 1288.16 666.121 1318.27 631.657 1331.55 614.207 L 1331.39 613.193 C 1281.88 635.368 1231.82 662.459 1182.44 685.402 C 1165.07 693.473 1142.4 706.14 1125.44 713.048 C 1128.34 730.133 1132.09 775.503 1133.18 793.537 z M 816.316 902.413 C 866.902 932.918 918.3 962.618 968.559 993.366 C 979.423 977.879 990.42 962.486 1001.55 947.188 C 998.744 935.876 996.744 920.585 994.85 908.859 C 991.68 888.661 988.18 868.516 984.353 848.433 C 962.812 830.956 933.143 809.703 913.768 792.612 C 917.162 766.02 918.371 738.915 922.211 712.34 C 901.035 703.099 879.228 691.672 858.264 681.612 L 769.086 639.563 C 756.199 633.366 726.814 617.246 715.036 612.805 C 739.556 642.064 776.69 681.388 796.104 713.166 C 803.006 724.464 808.575 786.404 816.541 800.682 C 821.396 809.385 837.554 825.98 844.792 833.988 C 854.569 844.778 864.121 855.77 873.441 866.956 C 865.432 861.212 807.344 824.278 805.639 821.277 C 790.957 795.44 779.309 758.381 765.292 730.29 C 749.926 767.77 734.325 807.451 718.006 844.327 L 782.404 882.166 C 791.278 887.391 808.218 896.85 816.316 902.413 z M 1217.51 927.868 C 1186.44 946.126 1142.19 968.96 1113.75 988.843 L 1124.42 993.011 C 1144.2 1001.11 1161.21 1004.67 1181.8 996.013 C 1197.2 989.594 1209.35 977.201 1215.45 961.667 C 1219.8 950.826 1221.99 940.17 1218.61 928.698 L 1217.51 927.868 z M 827.946 928.012 C 829.407 992.359 869.04 1013.88 926.728 992.019 L 934.101 988.566 C 912.454 974.778 890.129 961.887 867.762 949.292 C 856.964 943.212 838.949 932.382 827.946 928.012 z M 881.015 1155.48 C 881.151 1167.67 884.302 1270.96 885.577 1273.57 C 893.836 1290.47 952.401 1397.55 962.75 1405.62 C 954.399 1364.57 947.966 1323.34 939.481 1282.21 C 936.175 1266.18 939.621 1235.99 934.005 1222.36 C 928.803 1209.75 889.932 1164.48 881.015 1155.48 z M 1166.34 1153.79 C 1150.72 1172.21 1125.86 1200.16 1114.59 1221.69 C 1110.06 1230.34 1110.46 1262.07 1108.47 1273.99 C 1103.72 1302.41 1098.75 1330.33 1093.54 1358.93 C 1091.04 1372.69 1086.9 1391.27 1085.27 1405.31 C 1085.35 1405.63 1085.44 1405.96 1085.53 1406.28 C 1104.39 1375.47 1123.02 1344.52 1141.43 1313.43 C 1145.21 1306.97 1161.25 1280.19 1162.11 1274.99 C 1165.41 1254.99 1163.82 1227.82 1165.28 1206.9 C 1165.75 1200.22 1167.22 1157.74 1166.34 1153.79 z"/>
</svg>