<svg version="1.1" xmlns="http://www.w3.org/2000/svg" style="display: block;" viewBox="0 0 2048 2048" width="1024" height="1024" preserveAspectRatio="none">
<defs>
	<linearGradient id="Gradient1" gradientUnits="userSpaceOnUse" x1="1207.68" y1="757.136" x2="1167.32" y2="734.864">
		<stop class="stop0" offset="0" stop-opacity="1" stop-color="rgb(55,44,54)"/>
		<stop class="stop1" offset="1" stop-opacity="1" stop-color="rgb(86,96,84)"/>
	</linearGradient>
</defs>
<path transform="translate(0,0)" fill="rgb(0,0,0)" d="M 1479.76 507.968 C 1481.84 508.615 1483.46 509.256 1485.49 510.057 C 1490.4 515.569 1488.15 558.737 1487.96 568.73 C 1497.86 564.116 1522.06 556.323 1533.15 552.929 C 1552.08 568.758 1573.38 593.086 1592.5 610.484 C 1610.24 604.192 1621.19 593.572 1636.93 607.506 C 1638 626.02 1637.45 649.773 1637.47 668.64 L 1637.61 774.185 L 1637.58 1103.48 L 1637.33 1274.93 L 1637.34 1327.74 C 1637.33 1335.78 1637.58 1351.26 1636.41 1358.85 C 1629.1 1365.83 1571.1 1386.93 1556.88 1392.53 L 1267.01 1506.14 C 1211.26 1527.83 1155.35 1549.35 1099.71 1571.35 C 1086.99 1576.14 1079.61 1586.91 1066.77 1592 C 1038.88 1603.84 993.448 1604.81 968.545 1585.36 C 948.385 1569.61 931.185 1565.35 906.737 1555.83 L 503.694 1397.74 C 487.269 1391.02 420.854 1367.54 411.129 1359.74 C 410.364 1351.77 410.908 1338.24 410.925 1329.79 L 410.962 1275.77 C 410.482 1216.68 410.462 1157.59 410.905 1098.5 L 410.434 739.203 C 410.302 701.505 409.296 646.992 411.13 607.758 C 411.213 605.977 415.736 601.989 418.348 600.939 C 428.293 596.941 445.069 605.821 454.877 610.029 C 467.437 595.856 500.28 565.997 515.249 552.627 C 525.409 555.298 549.821 564.721 559.045 569.286 C 559.022 558.629 557.415 514.151 563.936 508.715 C 575.905 510.538 594.016 520.555 605.543 526.055 L 663.217 553.36 L 821.132 627.916 C 862.544 647.613 903.419 664.579 940.701 691.678 C 974.037 715.918 1002.05 746.737 1023 782.23 C 1052.45 739.998 1083.46 703.736 1128.23 677.122 C 1173.92 649.96 1224.55 628.625 1272.69 606.059 C 1341.84 573.641 1410.46 539.891 1479.76 507.968 z"/>
<path transform="translate(0,0)" fill="rgb(254,254,254)" d="M 424.843 618.015 C 457.148 633.56 506.772 648.949 540.916 662.079 L 824.966 769.787 C 850.739 779.36 876.462 789.069 902.132 798.915 C 913.816 803.264 933.731 809.745 944.21 814.951 C 945.68 818.097 945.272 816.362 944.438 820.509 C 943.075 835.39 943.848 859.284 943.898 874.958 L 944.113 968.248 L 944.196 1261.46 C 945.79 1268.67 944.909 1329.36 945.036 1342.46 C 945.719 1412.79 944.367 1484.12 945.191 1554.43 C 936.28 1550.51 925.203 1546.75 915.913 1543.09 L 847.459 1516.36 L 728.315 1469.48 L 518.638 1387.44 C 486.718 1375.03 457.614 1363.17 425.176 1351.25 C 426.478 1279.7 425.145 1204.87 425.237 1132.95 L 424.843 618.015 z"/>
<path transform="translate(0,0)" fill="rgb(60,60,60)" d="M 424.843 618.015 C 457.148 633.56 506.772 648.949 540.916 662.079 L 824.966 769.787 C 850.739 779.36 876.462 789.069 902.132 798.915 C 913.816 803.264 933.731 809.745 944.21 814.951 C 945.68 818.097 945.272 816.362 944.438 820.509 C 909.47 808.845 870.587 793.187 835.838 780.145 L 645.8 708.887 C 602.617 692.591 556.724 674.525 513.289 659.55 C 498.41 699.628 475.755 713.55 433.921 714.573 L 433.879 1084.42 C 433.908 1146.26 432.58 1212.51 433.856 1273.88 C 467.589 1292.77 489.62 1321.67 500.257 1358.98 C 501.432 1363.19 502.551 1367.43 503.614 1371.68 L 830.514 1499.39 C 868.443 1513.97 906.283 1528.79 944.032 1543.84 L 943.996 1356.11 C 943.988 1326.51 942.967 1290.16 944.196 1261.46 C 945.79 1268.67 944.909 1329.36 945.036 1342.46 C 945.719 1412.79 944.367 1484.12 945.191 1554.43 C 936.28 1550.51 925.203 1546.75 915.913 1543.09 L 847.459 1516.36 L 728.315 1469.48 L 518.638 1387.44 C 486.718 1375.03 457.614 1363.17 425.176 1351.25 C 426.478 1279.7 425.145 1204.87 425.237 1132.95 L 424.843 618.015 z"/>
<path transform="translate(0,0)" fill="rgb(215,215,214)" d="M 520.798 678.651 C 531.278 681.128 561.358 693.245 572.441 697.509 L 651.933 727.615 C 705.021 747.714 758.218 767.523 811.522 787.043 C 838.529 797.456 865.632 807.618 892.827 817.528 C 905.052 822.113 916.641 827.18 929.053 831.288 L 928.779 1520.57 C 912.319 1515.78 893.151 1507.64 876.753 1501.4 C 757.76 1452.88 635.893 1408.01 516.622 1359.94 C 501.636 1315.43 487.691 1292.42 448.786 1264.76 C 448.336 1229.53 448.83 1194.49 448.705 1159.27 L 448.251 893.541 C 448.32 840.211 449.39 782.357 448.119 729.351 C 481.073 728.026 506.738 707.418 520.798 678.651 z"/>
<path transform="translate(0,0)" fill="rgb(254,254,254)" d="M 1533.22 659.939 C 1533.41 659.921 1535.18 659.652 1535.44 660.424 C 1548.58 698.5 1572.78 713.858 1613.39 714.164 C 1614.03 741.765 1613.53 770.793 1613.54 798.524 L 1613.69 946.525 L 1613.37 1273.96 C 1609.97 1275.61 1606.66 1277.44 1603.46 1279.44 C 1572.83 1298.33 1552.34 1335.04 1544.28 1369.47 L 1162.25 1519.38 L 1103.89 1542.14 L 1103.26 893.308 C 1140.08 872.868 1166.05 838.121 1173.29 796.295 L 1533.22 659.939 z"/>
<path transform="translate(0,0)" fill="rgb(0,0,0)" d="M 1525.46 678.965 C 1527.89 679.581 1532.31 687.96 1534.49 691.049 C 1552.33 716.318 1569.46 723.49 1598.97 728.39 L 1598.91 1265.97 C 1564.93 1286.39 1542.53 1321.11 1531.89 1358.76 C 1494.35 1372.63 1455.05 1388.81 1417.68 1403.51 L 1173.77 1499.03 L 1118.3 1520.62 L 1118.16 901.427 C 1151.71 879.795 1175.62 846.051 1184.9 807.226 C 1263.59 778.674 1344.13 747.435 1422.53 717.68 C 1456.68 704.339 1490.99 691.433 1525.46 678.965 z"/>
<path transform="translate(0,0)" fill="rgb(254,254,254)" d="M 1267.52 951.107 L 1269.11 951.553 C 1276.39 974.442 1283.99 995.225 1314.31 989.44 C 1329.44 986.553 1344.09 981.477 1358.84 977.001 C 1359.73 1052.21 1358.72 1128.73 1359.02 1204.12 C 1345.54 1190.74 1334.13 1181.91 1318.92 1171.13 C 1324.39 1164.17 1327.98 1159.64 1332.47 1152.11 C 1333.18 1130.97 1332.53 1107.11 1332.37 1085.82 C 1324.92 1092.59 1314.92 1103.42 1307.64 1110.87 C 1296.58 1122.37 1286.24 1134.04 1277.91 1147.68 C 1277.32 1147.23 1276.73 1146.77 1276.15 1146.3 C 1254.69 1128.78 1249.49 1115.45 1246.7 1088.35 C 1255.06 1086.84 1262.94 1084.83 1271.17 1082.79 C 1272.28 1087.74 1274.88 1100.91 1280.39 1101.65 C 1288.96 1095.18 1322.9 1058.88 1332.11 1049.27 L 1332.02 1015.07 C 1309.67 1021.39 1295.31 1026.18 1272.99 1019.02 L 1272.03 1046.67 C 1263.58 1044.84 1255.15 1042.96 1246.73 1041.01 C 1246.5 1012.71 1246.53 984.413 1246.84 956.114 C 1253.7 954.802 1260.73 952.862 1267.52 951.107 z"/>
<path transform="translate(0,0)" fill="rgb(254,254,254)" d="M 1482.99 884.977 L 1485.07 885.008 C 1486.1 887.51 1485.71 964.309 1485.83 972.389 C 1477.87 978.451 1469.6 984.428 1461.54 990.38 C 1461.13 981.064 1460.96 971.513 1460.68 962.172 C 1439.31 981.911 1431.58 983.78 1404 993.039 L 1404.12 1027.57 L 1454.18 1053.22 C 1458.62 1043.56 1460.23 1038.68 1461.16 1028.13 C 1469.27 1025.65 1477.42 1022.47 1485.39 1019.5 C 1484.7 1052.25 1476.08 1070.37 1457.41 1096.87 C 1440.38 1080.87 1426.99 1074.85 1406.38 1063.56 L 1404.91 1063.23 C 1403.39 1065.29 1403.91 1124.03 1403.9 1131.65 C 1407.89 1135.53 1414.17 1139.93 1418.79 1143.38 C 1402.48 1160.57 1390.16 1178.52 1377.38 1198.27 C 1378.85 1174.23 1377.98 1140.8 1377.97 1116.16 L 1377.93 971.391 C 1391.26 967.042 1405.47 962.779 1418.41 957.571 C 1443.51 947.475 1459.65 919.104 1461.18 892.996 C 1468.61 890.548 1475.69 887.783 1482.99 884.977 z"/>
<path transform="translate(0,0)" fill="rgb(60,60,60)" d="M 967.543 827.731 C 985.575 841.55 999.766 845.12 1021.95 846.689 L 1022.09 1340.54 C 1022.06 1421.1 1023.67 1506.29 1022.09 1586.34 C 999.78 1584.06 985.483 1580.07 967.34 1566.05 C 965.982 1543.58 967.241 1503.42 967.209 1480 L 967.054 1302.08 C 967.04 1144.81 965.466 984.677 967.543 827.731 z"/>
<path transform="translate(0,0)" fill="rgb(215,215,214)" d="M 1528.8 570.111 C 1541.3 580.765 1563.62 604.118 1576.09 616.44 C 1525.53 634.67 1473.99 654.823 1423.63 673.936 L 1082.76 802.929 C 1080.15 804.056 1077.06 805.755 1074.47 807.09 C 1062.84 795.279 1054.42 791.047 1038.59 787.429 C 1089.3 725.388 1161.29 699.816 1233.61 674.483 L 1332.36 639.981 C 1398 617.138 1463.48 593.848 1528.8 570.111 z"/>
<path transform="translate(0,0)" fill="rgb(60,60,60)" d="M 1270.51 688.578 L 1271.19 688.526 C 1201.06 715.227 1137.27 741.853 1074.45 784.571 L 1073.44 784.726 C 1073.68 784.263 1073.92 783.801 1074.15 783.338 C 1119.78 747.794 1171.96 721.473 1226.51 702.626 C 1240.41 697.825 1256.19 691.709 1270.51 688.578 z"/>
<path transform="translate(0,0)" fill="rgb(60,60,60)" d="M 1523.59 589.484 L 1524.16 591.171 C 1472.09 609.739 1420.03 635.409 1366.66 652.041 C 1359.15 654.381 1334.01 666.235 1328.04 666.486 C 1330.28 664.269 1367.48 650.114 1372.27 648.004 C 1421.76 626.202 1472.63 607.644 1523.59 589.484 z"/>
<path transform="translate(0,0)" fill="rgb(60,60,60)" d="M 1362.54 676.052 C 1409.27 657.5 1455.31 637.775 1502.94 621.889 C 1516.74 617.289 1534.1 609.559 1547.72 605.993 C 1506.52 624.839 1462.72 640.275 1420.33 656.143 C 1409.52 660.19 1372.79 672.849 1364.23 677.3 L 1362.54 676.052 z"/>
<path transform="translate(0,0)" fill="rgb(0,0,0)" d="M 1156.44 709.659 L 1157.92 710.828 C 1133.91 721.372 1099.07 746.032 1077.89 762.073 C 1070.55 767.634 1061.21 777.362 1054.63 781.563 C 1056.98 778.204 1064.61 771.267 1067.94 768.087 C 1095.13 742.15 1123.31 726.005 1156.44 709.659 z"/>
<path transform="translate(0,0)" fill="url(#Gradient1)" d="M 1156.44 756.57 C 1162.58 752.378 1212.78 734.561 1223.17 730.642 L 1223.93 732.751 C 1203.6 741.654 1175.43 754.72 1154.92 762.166 L 1154.37 759.715 L 1156.44 756.57 z"/>
<path transform="translate(0,0)" fill="rgb(60,60,60)" d="M 1154.92 762.166 C 1149.85 764.81 1140.29 768.357 1134.54 770.902 C 1118.52 777.988 1102.4 784.68 1086.85 792.827 C 1093 786.346 1146.19 760.359 1156.44 756.57 L 1154.37 759.715 L 1154.92 762.166 z"/>
<path transform="translate(0,0)" fill="rgb(82,81,81)" d="M 1223.17 730.642 C 1230.27 728.092 1254.24 719.099 1260.56 718.245 C 1253.38 721.152 1230.21 731.063 1223.93 732.751 L 1223.17 730.642 z"/>
<path transform="translate(0,0)" fill="rgb(117,118,117)" d="M 1364.23 677.3 C 1354.52 681.299 1345.89 684.419 1336.02 687.866 L 1336.49 686.798 L 1333.91 688.29 L 1334.32 688.293 C 1336.27 686.02 1358.39 677.701 1362.54 676.052 L 1364.23 677.3 z"/>
<path transform="translate(0,0)" fill="rgb(82,81,81)" d="M 1156.44 709.659 C 1164.41 705.823 1170.55 702.819 1178.95 699.866 C 1176.18 702.527 1161.84 709.428 1157.92 710.828 L 1156.44 709.659 z"/>
<path transform="translate(0,0)" fill="rgb(117,118,117)" d="M 1523.59 589.484 C 1526.46 588.231 1530.12 586.479 1533.04 585.581 L 1533.9 586.355 L 1534.37 586.173 C 1530.35 588.628 1528.56 589.396 1524.16 591.171 L 1523.59 589.484 z"/>
<path transform="translate(0,0)" fill="rgb(215,215,214)" d="M 519.086 569.711 C 603.002 600.542 687.187 630.636 771.631 659.991 C 868.737 694.289 936.44 708.456 1008.24 787.301 C 993.1 790.913 983.848 795.799 972.667 806.267 L 966.18 802.988 C 909.1 780.945 851.874 759.279 794.507 737.991 L 613.432 669.357 C 568.12 652.267 515.113 633.749 471.118 615.354 C 485.889 603.127 504.954 583.589 519.086 569.711 z"/>
<path transform="translate(0,0)" fill="rgb(82,81,81)" d="M 781.222 682.995 C 787.426 683.172 808.173 691.624 814.972 694.057 C 877.992 716.603 919.551 741.176 972.341 781.303 C 967.158 780.113 928.548 754.097 920.671 749.344 C 875.548 722.112 829.68 702.919 781.222 682.995 z"/>
<path transform="translate(0,0)" fill="rgb(82,81,81)" d="M 789.64 711.6 C 820.475 723.519 851.103 735.583 880.958 749.824 C 886.634 752.531 906.475 761.755 911.206 765.077 L 908.596 767.247 C 897.493 763.209 879.408 754.478 867.974 749.388 C 841.189 737.542 814.476 725.534 787.836 713.367 L 789.64 711.6 z"/>
<path transform="translate(0,0)" fill="rgb(60,60,60)" d="M 528.179 585.882 C 534.625 586.346 558.511 596.126 565.704 598.689 C 600.222 610.988 634.356 623.918 667.902 638.692 C 680.3 644.151 693.568 648.854 705.548 655.14 C 698.411 653.673 673.61 642.974 665.441 640.034 C 620.226 623.76 572.099 605.45 528.179 585.882 z"/>
<path transform="translate(0,0)" fill="rgb(60,60,60)" d="M 625.548 646.381 C 585.109 631.223 539.429 615.66 500.734 596.965 L 500.494 596.056 C 509.551 598.397 526.701 605.421 536.053 608.786 C 566.478 619.735 596.281 632.476 626.054 645.069 L 625.548 646.381 z"/>
<path transform="translate(0,0)" fill="rgb(0,0,0)" d="M 908.5 719.772 C 928.565 724.52 973.799 763.556 988.929 778.284 C 985.473 777.157 979.984 771.865 976.794 769.207 C 955.338 750.992 932.505 734.464 908.5 719.772 z"/>
<path transform="translate(0,0)" fill="rgb(60,60,60)" d="M 911.206 765.077 C 917.518 768.286 959.62 789.312 961.484 792.196 C 943.645 784.985 926.205 774.365 908.596 767.247 L 911.206 765.077 z"/>
<path transform="translate(0,0)" fill="rgb(60,60,60)" d="M 787.836 713.367 C 772.959 706.94 758.132 700.397 743.357 693.741 C 745.822 692.971 784.676 709.559 789.64 711.6 L 787.836 713.367 z"/>
<path transform="translate(0,0)" fill="rgb(155,153,155)" d="M 626.054 645.069 C 630.126 646.506 638.27 648.93 640.887 651.983 C 636.919 652.092 629.074 648.422 625.548 646.381 L 626.054 645.069 z"/>
<path transform="translate(0,0)" fill="rgb(60,60,60)" d="M 574.77 528.278 L 794.522 631.988 C 831.333 649.427 901.458 680.164 932.981 705.224 C 927.709 703.959 914.266 696.098 908.456 693.448 C 897.691 688.538 887.314 683.851 876.091 679.923 L 682.89 612.513 C 652.029 601.564 605.602 582.932 574.916 574.303 L 574.77 528.278 z"/>
<path transform="translate(0,0)" fill="rgb(60,60,60)" d="M 1472.01 528.343 C 1473.43 531.812 1473.04 568.024 1473.06 574.293 C 1468.8 575.393 1464.68 576.846 1460.51 578.241 C 1428.21 589.063 1396.41 601.326 1364.21 612.433 C 1316.61 628.642 1269.11 645.142 1221.71 661.933 C 1183.96 675.402 1146.66 687.092 1112.14 707.841 L 1111.8 706.977 C 1117.55 701.803 1127.1 696.007 1133.89 691.719 C 1170.58 668.559 1211.19 651.778 1250.42 633.259 C 1294.13 612.284 1337.95 591.554 1381.89 571.07 C 1411.52 557.146 1442.9 543.007 1472.01 528.343 z"/>
<path transform="translate(0,0)" fill="rgb(82,81,81)" d="M 1018.52 801.262 C 1039.08 800.213 1049.46 805.482 1064.26 818.754 C 1050.09 825.569 1042.91 828.838 1027.4 830.678 C 1010.68 832.103 996.015 827.308 981.841 818.942 C 993.489 807.134 1002.78 803.857 1018.52 801.262 z"/>
</svg>