<svg version="1.1" xmlns="http://www.w3.org/2000/svg" style="display: block;" viewBox="0 0 2048 2048" width="1024" height="1024" preserveAspectRatio="none">
<path transform="translate(0,0)" fill="rgb(0,0,0)" d="M 1023.06 101.576 L 1024.58 102.392 C 1029.46 109.496 1036.76 125.867 1040.54 134.053 L 1062.98 182.712 L 1097.18 256.083 C 1110.07 284.045 1115.48 287.225 1113.99 318.678 C 1123.66 315.459 1132.77 312.933 1142.83 311.243 L 1152.05 333.961 C 1173.91 323.053 1215.25 304.144 1238.22 295.901 C 1241.9 331.738 1246.49 375.765 1248.48 411.281 C 1281.16 415.538 1315.21 419.356 1347.5 427.285 C 1377.31 434.606 1425.13 445.898 1452.28 459.981 C 1463.8 465.958 1503.37 498.083 1514.2 507.333 C 1616.48 594.643 1704.36 707.627 1775.91 821.256 C 1752.45 814.069 1727.48 804.434 1704.18 796.106 C 1668.65 783.575 1633.01 771.354 1597.27 759.445 C 1490.21 724.453 1373.91 696.17 1263.22 675.736 C 1250.54 673.394 1190.71 663.339 1181.47 663.916 C 1176.19 667.785 1157.11 731.945 1151.85 743.507 L 1151.25 744.794 C 1143.85 742.042 1137.8 739.918 1130.8 736.297 C 1129.42 754.823 1127.04 775.801 1127.21 794.128 C 1127.56 833.251 1137.84 871.748 1146.34 909.788 C 1137.56 932.518 1109.79 938.364 1091.94 956.253 L 1091.19 1599.53 L 1091.75 1789.63 L 1092 1848.17 C 1092.03 1855.38 1092.4 1877.67 1091.41 1883.65 C 1088.54 1900.98 1073.26 1930.19 1064.82 1946.03 C 1052.66 1946.22 1039.96 1946.02 1027.75 1945.99 C 1012.47 1946.04 997.543 1946.12 982.276 1945.55 C 975.434 1932.31 958.696 1900.96 957.299 1887.56 C 954.578 1861.46 955.508 1828.82 955.342 1802.44 L 955.117 1619.99 L 955.182 1151.96 C 955.189 1087.01 956.779 1019.44 955.796 954.974 C 941.289 942.805 901.641 926.968 902.277 906.703 C 902.988 884.032 912.95 859.036 916.424 836.205 C 921.49 802.912 918.358 770.538 916.477 737.175 C 909.552 739.609 903.561 741.562 896.511 743.585 C 886.185 716.901 876.521 689.966 867.528 662.804 C 729.317 682.552 593.021 713.936 460.092 756.623 C 396.545 776.686 335.188 799.092 272.389 820.821 C 311.868 754.425 378.782 666.524 430.192 608.508 C 468.138 565.564 509.698 525.954 554.414 490.113 C 582.696 467.242 588.958 461.834 623.559 449.036 C 679.763 428.434 738.626 415.982 798.358 412.057 C 800.497 374.648 806.584 334.222 809.17 295.954 C 837.608 309.559 867.06 321.213 895.806 335.342 C 898.748 326.172 901.266 319.354 905 310.484 C 912.237 312.764 925.526 317.627 932.293 318.649 C 934.449 312.702 930.667 296.94 935.404 286.249 C 944.756 265.144 955.029 244.073 964.909 223.263 C 983.865 182.498 1003.25 141.934 1023.06 101.576 z"/>
<path transform="translate(0,0)" fill="rgb(211,211,211)" d="M 979.287 970.642 C 994.129 979.75 1008.58 989.358 1023.41 998.408 C 1038.66 989.282 1053.18 979.546 1068.11 970.535 L 1068.04 1574.6 C 1068.02 1654.38 1067.17 1735.49 1068.2 1815.14 L 1023.78 1815.12 C 1008.93 1815.27 994.073 1815.34 979.217 1815.33 C 977.507 1726.04 979.124 1631.67 979.152 1541.83 L 978.963 1021.09 C 979.017 1004.47 978.842 987.207 979.287 970.642 z"/>
<path transform="translate(0,0)" fill="rgb(254,254,254)" d="M 978.963 1021.09 C 992.651 1027.54 1010.45 1040.67 1023.75 1049.25 L 1023.78 1815.12 C 1008.93 1815.27 994.073 1815.34 979.217 1815.33 C 977.507 1726.04 979.124 1631.67 979.152 1541.83 L 978.963 1021.09 z"/>
<path transform="translate(0,0)" fill="rgb(254,254,254)" d="M 752.393 440.767 C 794.481 433.903 810.52 435.089 852.24 439.122 C 842.807 464.517 828.561 498.886 817.769 524.417 C 811.971 526.784 803.944 528.545 797.734 529.952 C 771.032 536.001 745.087 543.722 718.888 551.687 L 663.565 572.022 L 649.7 577.648 C 642.665 580.748 627.985 587.682 621.286 590.02 C 527.459 633.365 422.095 702.878 338.721 764.402 C 401.403 674.927 470.093 590.767 554.403 520.673 C 566.378 510.717 588.877 492.089 602.107 484.05 C 615.544 475.885 646.537 466.498 662.724 461.124 C 670.776 458.379 679.115 456.255 687.335 454.036 L 700.127 450.249 C 716.449 446.644 735.811 443.625 752.393 440.767 z"/>
<path transform="translate(0,0)" fill="rgb(254,254,254)" d="M 752.393 440.767 C 794.481 433.903 810.52 435.089 852.24 439.122 C 842.807 464.517 828.561 498.886 817.769 524.417 C 811.971 526.784 803.944 528.545 797.734 529.952 C 771.032 536.001 745.087 543.722 718.888 551.687 C 716.997 546.262 749.087 457.201 752.393 440.767 z"/>
<path transform="translate(0,0)" fill="rgb(211,211,211)" d="M 700.127 450.249 C 716.449 446.644 735.811 443.625 752.393 440.767 C 749.087 457.201 716.997 546.262 718.888 551.687 L 663.565 572.022 C 668.197 551.393 703.85 460.173 700.127 450.249 z"/>
<path transform="translate(0,0)" fill="rgb(211,211,211)" d="M 687.335 454.036 L 700.127 450.249 C 703.85 460.173 668.197 551.393 663.565 572.022 L 649.7 577.648 C 642.665 580.748 627.985 587.682 621.286 590.02 C 623.476 577.482 630.25 560.446 634.396 548.156 C 643.924 519.909 656.478 490.178 662.724 461.124 C 670.776 458.379 679.115 456.255 687.335 454.036 z"/>
<path transform="translate(0,0)" fill="rgb(254,254,254)" d="M 687.335 454.036 L 700.127 450.249 C 703.85 460.173 668.197 551.393 663.565 572.022 L 649.7 577.648 C 646.909 570.893 683.062 470.245 687.335 454.036 z"/>
<path transform="translate(0,0)" fill="rgb(22,22,22)" d="M 819.68 548.178 C 820.092 548.145 822.69 548.427 823.188 548.475 C 828.429 554.01 852.898 626.698 859.078 640.43 C 844.869 643.912 817.567 646.845 801.865 649.51 C 768.577 655.34 735.388 661.726 702.313 668.665 C 631.675 683.518 561.715 701.431 492.631 722.354 C 458.529 732.651 421.074 744.149 387.5 756.416 C 373.889 760.232 364.73 763.066 351.614 768.01 C 377.241 747.952 421.048 720.965 448.906 704.358 C 566.107 634.489 686.177 578.897 819.68 548.178 z"/>
<path transform="translate(0,0)" fill="rgb(22,22,22)" d="M 1223.69 546.854 C 1258.53 556.896 1290.11 564.199 1325.08 575.738 C 1428.97 610.848 1528.18 658.539 1620.49 717.747 C 1635.73 727.38 1681 755.85 1691.47 766.666 C 1683.87 763.682 1674.62 760.899 1666.75 758.322 C 1634.45 745.772 1593.13 733.665 1559.85 723.692 C 1493.23 703.912 1425.95 686.403 1358.14 671.194 C 1302.29 659.703 1246.21 649.412 1189.93 640.326 C 1198.64 612.491 1213.35 575.578 1223.69 546.854 z"/>
<path transform="translate(0,0)" fill="rgb(211,211,211)" d="M 1370.74 457.492 C 1384.15 460.759 1418.73 471.166 1430.82 477.308 C 1433.24 478.151 1439.22 480.03 1441.11 481.199 C 1453.25 489.137 1466.96 500.242 1478.48 509.353 C 1551.32 566.998 1615.8 637.396 1671.13 711.851 C 1684.14 729.351 1697.56 747.347 1709.32 765.669 C 1686.86 748.069 1664.28 732.716 1641.08 716.307 C 1592.49 681.953 1544.19 651.317 1491.97 622.815 C 1486.86 620.601 1483.1 618.384 1478.31 615.635 C 1458.26 606.181 1437.49 595.621 1417.6 585.704 L 1417.45 584.503 C 1415.35 567.298 1379.63 472.541 1370.74 457.492 z"/>
<path transform="translate(0,0)" fill="rgb(211,211,211)" d="M 1370.74 457.492 C 1384.15 460.759 1418.73 471.166 1430.82 477.308 L 1429.16 479.015 C 1430.53 492.544 1454.96 551.891 1460.92 568.744 C 1464.44 578.71 1474.24 605.34 1478.31 615.635 C 1458.26 606.181 1437.49 595.621 1417.6 585.704 L 1417.45 584.503 C 1415.35 567.298 1379.63 472.541 1370.74 457.492 z"/>
<path transform="translate(0,0)" fill="rgb(254,254,254)" d="M 1478.31 615.635 C 1474.24 605.34 1464.44 578.71 1460.92 568.744 C 1454.96 551.891 1430.53 492.544 1429.16 479.015 L 1430.82 477.308 C 1433.24 478.151 1439.22 480.03 1441.11 481.199 C 1446.33 499.489 1494.76 614.501 1491.97 622.815 C 1486.86 620.601 1483.1 618.384 1478.31 615.635 z"/>
<path transform="translate(0,0)" fill="rgb(211,211,211)" d="M 929.171 525.569 C 934.324 528.425 1009.94 632.603 1019.09 645.083 L 1019.26 671.749 C 989.606 682.882 960.094 694.402 930.736 706.306 L 910.61 714.478 C 887.142 653.945 867.905 592.04 843.915 531.115 C 870.518 530.499 902.167 527.436 929.171 525.569 z"/>
<path transform="translate(0,0)" fill="rgb(97,96,96)" d="M 1117.2 525.73 C 1144.62 528.107 1175.63 529.407 1203.26 531.113 C 1195.86 554.164 1185.83 579.946 1177.49 602.823 L 1137.23 714.525 L 1120.25 707.459 C 1090.76 695.936 1057.99 684.217 1029.14 671.888 C 1029.08 662.862 1028.96 654.517 1029.57 645.484 C 1033.67 639.213 1038.25 632.766 1042.75 626.751 C 1067.62 593.442 1091.51 558.367 1117.2 525.73 z"/>
<path transform="translate(0,0)" fill="rgb(254,254,254)" d="M 1195.93 439.122 C 1222.76 436.773 1246.41 433.728 1273.43 437.455 C 1306.34 441.995 1338.96 447.539 1370.74 457.492 C 1379.63 472.541 1415.35 567.298 1417.45 584.503 L 1417.6 585.704 C 1357.12 558.088 1294.37 539.781 1229.94 524.378 C 1227.77 519.439 1225.6 513.999 1223.72 508.941 C 1215.06 485.667 1203.93 462.56 1195.93 439.122 z"/>
<path transform="translate(0,0)" fill="rgb(254,254,254)" d="M 918.639 339.891 C 952.229 348.922 985.012 360.96 1019.24 370.052 C 1019.29 378.683 1019.14 387.501 1019.08 396.15 L 934.178 510.301 C 927.842 517.478 917.25 516.946 908.089 517.59 C 887.13 519.062 865.849 520.398 844.883 521.495 C 868.433 461.084 895.926 400.369 918.639 339.891 z"/>
<path transform="translate(0,0)" fill="rgb(211,211,211)" d="M 1124.93 341.1 L 1127.08 340.934 C 1127.62 341.281 1128.17 341.627 1128.72 341.974 C 1149.85 391.375 1184.08 475.952 1203.03 521.133 C 1175.94 518.749 1147.33 518.563 1120.18 516.108 C 1118.7 515.974 1117.07 514.795 1115.91 513.904 C 1106.22 501.863 1093.83 483.144 1084.24 469.961 C 1066.13 445.15 1047.69 420.58 1028.92 396.258 L 1028.85 370.445 C 1060.37 360.373 1093.23 350.69 1124.93 341.1 z"/>
<path transform="translate(0,0)" fill="rgb(211,211,211)" d="M 1021.67 423.055 L 1023.14 421.553 C 1026.53 422.81 1087.66 507.043 1096.92 518.715 C 1093.59 529.965 1032.39 611.065 1022.8 619.766 C 1018.75 614.27 1004.22 593.798 1001.2 589.292 C 993.256 577.413 953.91 528.056 950.959 519.449 C 963.635 500.909 976.683 483.295 990.033 465.253 C 1000.31 451.364 1010.63 436.25 1021.67 423.055 z"/>
<path transform="translate(0,0)" fill="rgb(22,22,22)" d="M 1096.92 518.715 C 1093.59 529.965 1032.39 611.065 1022.8 619.766 C 1023.63 609.761 1023.15 594.993 1023.15 584.412 C 1023.07 562.607 1023.16 540.8 1023.43 518.996 C 1046.69 519.101 1073.87 519.702 1096.92 518.715 z"/>
<path transform="translate(0,0)" fill="rgb(254,254,254)" d="M 1021.67 423.055 C 1025.49 429.309 1024.01 507.346 1024 518.635 C 1004.12 518.792 969.427 517.936 950.959 519.449 C 963.635 500.909 976.683 483.295 990.033 465.253 C 1000.31 451.364 1010.63 436.25 1021.67 423.055 z"/>
<path transform="translate(0,0)" fill="rgb(22,22,22)" d="M 1021.44 160.803 C 1031.76 166.897 1068.55 254.809 1077.73 271.476 C 1088.78 291.57 1088.86 304.801 1089.09 327.013 C 1077.11 329.717 1029.61 346.025 1022.54 346.031 C 1001.02 340.183 978.188 331.657 957.002 326.44 C 956.84 319.918 956.056 304.066 957.792 298.631 C 963.217 281.655 973.257 261.831 981.048 245.543 C 994.488 217.443 1007.5 188.517 1021.44 160.803 z"/>
<path transform="translate(0,0)" fill="rgb(254,254,254)" d="M 1021.44 160.803 C 1023 174.279 1022.27 192.133 1022.12 205.934 C 1021.62 252.571 1023.24 299.428 1022.54 346.031 C 1001.02 340.183 978.188 331.657 957.002 326.44 C 956.84 319.918 956.056 304.066 957.792 298.631 C 963.217 281.655 973.257 261.831 981.048 245.543 C 994.488 217.443 1007.5 188.517 1021.44 160.803 z"/>
<path transform="translate(0,0)" fill="rgb(254,254,254)" d="M 938.415 728.269 C 962.459 720.614 995.039 706.519 1019.66 697.254 C 1019.75 712.544 1019.57 727.834 1019.12 743.117 L 1019.07 875.316 C 988.966 882.074 956.952 889.137 927.151 896.761 C 938.967 852.607 944.699 816.894 942.628 770.73 C 940.797 763.82 938.648 735.313 938.415 728.269 z"/>
<path transform="translate(0,0)" fill="rgb(211,211,211)" d="M 938.415 728.269 C 962.459 720.614 995.039 706.519 1019.66 697.254 C 1019.75 712.544 1019.57 727.834 1019.12 743.117 C 1010.92 745.133 945.997 766.746 942.628 770.73 C 940.797 763.82 938.648 735.313 938.415 728.269 z"/>
<path transform="translate(0,0)" fill="rgb(22,22,22)" d="M 1028.89 698.159 C 1052.77 705.216 1084.85 721.898 1109.27 728.653 C 1099.38 797.163 1103.68 826.852 1118.65 892.656 L 1118.43 894.545 C 1114.64 895.84 1040.03 877.428 1029.53 875.234 C 1027.77 852.327 1028.06 825.758 1028.08 802.712 C 1028.05 767.859 1028.32 733.007 1028.89 698.159 z"/>
<path transform="translate(0,0)" fill="rgb(22,22,22)" d="M 1022.83 1835.29 L 1067.87 1834.96 C 1068.17 1869.16 1069.76 1892.08 1050.26 1922.77 C 1041.17 1922.86 1032.07 1922.9 1022.97 1922.87 L 997.383 1922.94 C 976.001 1879.88 978.522 1882.92 979.022 1835.12 C 993.624 1835.04 1008.23 1835.1 1022.83 1835.29 z"/>
<path transform="translate(0,0)" fill="rgb(254,254,254)" d="M 979.022 1835.12 C 993.624 1835.04 1008.23 1835.1 1022.83 1835.29 C 1023.24 1862.23 1023.73 1895.94 1022.97 1922.87 L 997.383 1922.94 C 976.001 1879.88 978.522 1882.92 979.022 1835.12 z"/>
<path transform="translate(0,0)" fill="rgb(211,211,211)" d="M 1015.56 886.262 C 1015.98 886.202 1017.65 886.434 1018.16 886.49 C 1019.67 889.348 1018.99 959.03 1018.98 967.946 C 1006.94 958.013 981.718 942.87 967.81 934.034 C 956.437 926.734 938.243 915.366 928.366 907.021 C 953.809 899.853 989.535 891.167 1015.56 886.262 z"/>
<path transform="translate(0,0)" fill="rgb(22,22,22)" d="M 1029.38 885.495 C 1058.82 892.685 1090.82 900.645 1120.32 906.58 C 1112.25 914.52 1096.01 923.733 1085.92 929.744 C 1067.28 942.034 1048.52 954.129 1029.63 966.026 C 1029.16 939.185 1029.07 912.339 1029.38 885.495 z"/>
<path transform="translate(0,0)" fill="rgb(22,22,22)" d="M 1212.31 333.703 C 1217.39 337.392 1218.43 340.527 1219.11 347.062 C 1221.39 368.654 1223.78 391.606 1225.23 413.196 C 1212.5 414.035 1196.52 415.208 1183.86 414.751 C 1183.15 410.242 1182.88 402.786 1179.6 400.304 C 1175.01 395.215 1164.28 365.495 1161 356.961 C 1176.67 349.006 1195.91 339.319 1212.31 333.703 z"/>
<path transform="translate(0,0)" fill="rgb(254,254,254)" d="M 1212.31 333.703 C 1202.57 355.099 1190.32 379.228 1179.6 400.304 C 1175.01 395.215 1164.28 365.495 1161 356.961 C 1176.67 349.006 1195.91 339.319 1212.31 333.703 z"/>
<path transform="translate(0,0)" fill="rgb(254,254,254)" d="M 829.244 334.763 C 830.746 333.745 832.048 332.802 834.215 333.799 C 848.156 340.206 873.271 350.514 885.726 357.895 C 883.638 363.424 866.085 405.559 866.154 407.584 C 865.562 408.899 863.826 412.787 862.833 413.317 C 854.727 417.644 830.111 413.916 821.589 413.113 C 824.447 387.102 826.613 360.818 829.244 334.763 z"/>
<path transform="translate(0,0)" fill="rgb(22,22,22)" d="M 829.244 334.763 C 830.746 333.745 832.048 332.802 834.215 333.799 C 848.156 340.206 873.271 350.514 885.726 357.895 C 883.638 363.424 866.085 405.559 866.154 407.584 C 859.157 393.582 837.435 344.891 829.244 334.763 z"/>
</svg>