<svg version="1.1" xmlns="http://www.w3.org/2000/svg" style="display: block;" viewBox="0 0 2048 2048" width="1024" height="1024" preserveAspectRatio="none">
<path transform="translate(0,0)" fill="rgb(0,0,0)" d="M 1010.58 862.452 C 1030.88 860.905 1076.65 864.441 1096.11 868.756 C 1094.56 883.356 1090.49 901.962 1087.48 916.572 C 1082.23 942.244 1076.79 967.877 1071.16 993.469 C 1067.25 1011.01 1062.27 1030.87 1059.49 1048.45 C 1064.09 1049.31 1069.5 1050.72 1074.13 1051.79 C 1079.29 1034.42 1082.48 1014.53 1089.42 997.799 C 1111.5 998.532 1147.84 1013.03 1166.57 1025.2 C 1161.12 1041.75 1150.68 1061.4 1142.69 1077.36 C 1146.48 1079.24 1149.87 1081.16 1153.53 1083.24 C 1158.82 1073.41 1173.63 1043.74 1181 1038.99 C 1195.59 1029.57 1239.08 1071.03 1246.75 1081.66 C 1240.99 1093.68 1220.41 1114.7 1210.45 1125.56 C 1213.58 1128.03 1216.99 1131.49 1219.92 1134.29 C 1229.95 1124.14 1249.64 1101.06 1261.4 1094.62 C 1280.23 1107.25 1301.52 1134.5 1311.18 1155.11 C 1299.41 1167.23 1278.68 1179.79 1263.92 1189 C 1266.09 1191.95 1268.63 1196.05 1270.71 1199.17 C 1284.52 1189.12 1305.65 1175.58 1321.9 1171.28 C 1335.5 1185.03 1351.67 1222.06 1354.67 1241.2 C 1344.64 1250.82 1315.69 1258.95 1300.75 1265.22 C 1302.85 1269.14 1304.16 1272.76 1305.78 1276.88 C 1315.7 1273.13 1347.95 1259.8 1359.46 1261.2 C 1364.21 1261.78 1369.22 1279.37 1370.37 1285.21 C 1373.85 1303.07 1383.49 1337.72 1378.02 1354.64 C 1375.96 1356.75 1375.7 1357.02 1372.45 1357.09 C 1327.7 1358.1 1281.99 1356.35 1237.31 1357.93 C 1236.02 1322.91 1223.82 1279.3 1209.63 1247.24 C 1182.8 1186.66 1137.01 1132.48 1079.86 1098.52 C 1061.91 1087.85 1045.49 1081.24 1026.27 1073.9 C 1017.24 1070.91 996.233 1063.77 987.188 1063.91 C 956.992 1064.39 906.337 1088.34 881.207 1103.9 C 866.791 1112.9 853.169 1123.11 840.488 1134.42 C 777.078 1192.29 738.696 1272.58 733.478 1358.27 C 711.765 1359.04 683.599 1358.75 661.627 1358.63 C 661.164 1357.07 660.746 1355.49 660.372 1353.9 C 655.878 1334.39 667.193 1277.8 678.603 1259.84 C 693.67 1261.57 716.706 1270.34 731.441 1275.55 C 732.629 1272.27 734.299 1268.65 735.7 1265.42 C 727.059 1261.4 683.74 1247.81 685.086 1237.84 C 687.733 1218.23 704.496 1185.94 717.571 1171.15 C 731.638 1174.21 754.659 1191.11 767.858 1199.67 L 772.729 1190.07 C 758.738 1178.84 738.869 1168.7 728.069 1154.91 C 732.432 1143 766.59 1097.32 779.221 1095.23 C 786.279 1097.77 811.659 1126.02 819.495 1133.88 L 827.583 1126.35 C 819.118 1115.97 796.913 1094.12 793.404 1083.01 C 794.551 1070.31 843.032 1036.19 856.005 1036.37 C 864.92 1041.06 879.124 1071.69 884.576 1082.18 C 888.178 1080.75 892.098 1078.88 895.669 1077.27 C 887.06 1061.25 877.335 1043.56 873.134 1025.9 C 885.22 1014.77 933.259 995.402 949.836 1000.37 C 954.598 1001.8 962.777 1044.57 964.504 1052.01 L 978.224 1048.35 C 975.584 1030.54 971.326 1013.19 967.629 995.598 L 952.942 923.098 C 950.006 908.621 943.868 882.976 943.904 868.744 C 965.388 863.544 988.465 863.271 1010.58 862.452 z M 987.197 917.531 C 994.024 924.074 1004.62 934.49 1010 942.103 C 1003.91 949.763 996.536 958.314 990.79 966.02 L 998.494 973.288 C 1002.6 968.723 1015.37 952.994 1020.23 952.332 L 1020.83 952.785 L 1039.74 974.134 L 1048.45 966.523 C 1041.47 957.575 1034.63 950.242 1027.84 941.753 C 1034.83 933.819 1043.38 924.83 1051.33 917.814 C 1046.67 912.865 1022.43 886.735 1018.89 884.654 C 1008.14 895.479 997.368 906.154 987.197 917.531 z"/>
<path transform="translate(0,0)" fill="rgb(0,0,0)" d="M 1019.32 902.533 C 1024.86 906.611 1029.51 912.349 1034.04 917.541 L 1019.3 932.308 C 1015.49 930.688 1007.44 921.115 1004.14 917.51 C 1008.35 912.557 1014.49 907.088 1019.32 902.533 z"/>
<path transform="translate(0,0)" fill="rgb(0,0,0)" d="M 916.018 872.308 C 919.527 871.751 920.595 871.36 924.119 872.156 C 929.575 876.828 946.448 967.14 948.692 979.008 C 932.278 984.108 914.508 987.967 898.475 994.198 C 818.91 1025.12 760.566 1076.64 711.818 1145.61 C 707.424 1151.15 702.554 1159.14 699.005 1165.26 C 699.9 1143.4 699.001 1120.67 699.097 1098.65 L 699.11 937.114 C 713.11 930.897 733.861 923.595 748.53 918.31 C 802.912 898.124 858.955 882.731 916.018 872.308 z M 741.765 1006.18 C 750.185 1014.25 757.453 1022.26 765.544 1030.2 L 772.785 1023.23 C 767.095 1017.28 753.189 1003.35 749.05 997.564 C 754.221 992.729 761.022 986.7 765.677 981.607 C 763.777 979.289 761.465 976.284 759.514 974.111 C 754.086 979.479 747.661 986.189 742.089 991.224 C 741.954 981.688 742.882 970.956 742 961.54 C 741.349 954.578 737.066 954.814 731.247 955.094 C 731.09 964.396 729.933 1022.61 731.62 1028.21 C 735.449 1029.08 735.427 1028.99 739.402 1028.71 C 742.186 1024.26 741.454 1012.06 741.765 1006.18 z M 899.777 900.697 C 887.392 912.548 875.24 924.64 863.328 936.966 C 875.26 949.446 887.282 960.611 899.926 972.36 L 907.089 965.871 C 899.252 957.776 885.825 944.766 878.924 936.595 C 888.022 926.582 897.464 917.079 906.942 907.432 L 899.777 900.697 z M 835.444 956.835 L 842.491 950.006 C 838.82 946.261 817.629 924.154 814.328 922.762 C 804.391 931.798 795.474 940.108 785.986 949.604 C 788.727 952.303 791.011 955.33 794.665 955.791 C 799.768 954.355 803.562 947.399 809.093 942.694 C 809.022 952.075 807.725 993.645 810.506 999.72 C 813.298 1001.54 816.008 1001.1 819.456 1001.12 C 819.881 985.304 818.417 955.986 819.725 942.314 C 825.162 947.159 830.28 951.701 835.444 956.835 z"/>
<path transform="translate(0,0)" fill="rgb(0,0,0)" d="M 1114.25 871.704 C 1128.09 872.172 1145.79 876.368 1159.59 879.312 C 1220.96 892.404 1281.61 913.946 1339.99 936.795 L 1339.95 1164.73 C 1337.84 1160.88 1334.51 1156.13 1332.03 1152.37 C 1285.16 1082.59 1230.32 1030.29 1151.26 998.125 C 1131.59 990.122 1111.94 984.33 1091.67 978.09 C 1094.91 953.049 1107.12 896.096 1114.25 871.704 z M 1237.16 953.475 C 1238.16 965.798 1235.33 988.796 1242.73 995.24 C 1244.22 995.212 1245.19 995.561 1245.75 994.469 C 1250.39 985.517 1248.59 957.92 1248.77 947.73 C 1241.14 942.807 1211.54 923.088 1204.25 920.174 C 1204.29 929.599 1203.65 990.622 1206.07 994.485 C 1209.4 995.402 1209.49 995.117 1212.74 994.192 C 1216.88 990.04 1214.92 949.085 1215.39 940.255 C 1223.4 944.33 1229.84 948.15 1237.16 953.475 z M 1315.85 984.135 C 1304.53 973.7 1293.14 962.998 1281.41 953.057 C 1277.78 972.578 1282.79 1010.36 1279.77 1030.76 C 1284.19 1031.1 1287.8 1031.25 1292.16 1032.22 L 1292.08 998.75 L 1291.99 977.112 C 1298.25 981.854 1303.43 985.604 1308.99 991.117 L 1315.85 984.135 z M 1165.92 929.268 C 1155.44 920.157 1142.42 907.513 1131.17 900.48 C 1131.11 910.535 1129.25 964.517 1134.15 969.495 C 1138.3 970.332 1136.53 970.742 1139.76 968.795 C 1144.13 961.171 1141.94 932.392 1142.07 921.763 C 1147.16 926.49 1154.36 932.754 1158.49 938.01 C 1163.19 942.294 1168.32 945.242 1174.04 941.344 C 1179.31 931.698 1175.76 919.774 1177.97 907.886 C 1174.13 908.204 1169.78 908.757 1166 908.373 C 1166.26 916.022 1166.46 921.664 1165.92 929.268 z"/>
<path transform="translate(0,0)" fill="rgb(0,0,0)" d="M 601.251 875.465 C 628.991 875.478 656.732 875.351 684.471 875.084 L 684.04 1102.94 C 683.872 1127.8 684.94 1165.55 682.932 1191.03 C 682.465 1196.95 679.708 1202.35 677.295 1207.71 C 661.884 1241.94 650.931 1279.9 645.228 1317.02 C 643.043 1328.54 641.287 1346.69 640.7 1358.36 C 628.257 1357.92 614.612 1358.15 602.067 1358.15 C 603.348 1295.9 601.822 1232.5 601.215 1170.24 C 600.714 1092.18 600.937 1014.11 601.883 936.055 C 602.034 915.852 600.946 895.135 601.251 875.465 z M 617.08 1112.66 C 616.885 1137.49 616.857 1162.33 616.996 1187.17 C 623.899 1179.05 635.296 1164.56 642.664 1157.78 C 646.603 1162.38 663.049 1182.68 667.356 1184.13 L 667.775 1182.25 C 667.6 1159.09 667.933 1134.77 667.514 1111.77 C 658.7 1121.49 650.875 1131.51 642.717 1141.77 C 636.108 1133.9 624.369 1119.29 617.08 1112.66 z M 658.725 1062.6 C 659.752 1060.78 660.978 1059.62 660.364 1058.3 C 657.213 1051.54 646.641 1042.34 641.254 1036.81 C 647.962 1030.93 657.688 1023.74 665.128 1018.49 C 651.344 1007.87 637.063 997.917 622.333 988.655 C 622.382 1002.84 620.802 1060.89 625.824 1069.06 L 627.378 1069.83 C 635.575 1066.12 634.152 1051.26 634.075 1043.94 C 638.955 1048.77 650.503 1062.41 655.921 1063.6 L 658.725 1062.6 z"/>
<path transform="translate(0,0)" fill="rgb(0,0,0)" d="M 626.593 1139.53 C 628.953 1140.7 633.522 1145.38 634.159 1148.3 C 635.049 1152.37 634.058 1152.29 631.685 1155.79 C 630.047 1157.44 630.119 1157.32 627.961 1158.25 L 626.57 1157.03 C 625.244 1151.67 626.187 1145.2 626.593 1139.53 z"/>
<path transform="translate(0,0)" fill="rgb(0,0,0)" d="M 657.625 1140.81 C 659.79 1144.7 660.072 1154.49 657.149 1158.18 L 654.153 1156.87 L 648.988 1148.97 C 652.222 1145.22 653.756 1143.96 657.625 1140.81 z"/>
<path transform="translate(0,0)" fill="rgb(0,0,0)" d="M 633.27 1008.57 C 639.33 1012.16 642.342 1014.38 647.924 1018.69 L 642.331 1023.76 L 633.185 1030.52 C 633.044 1023.39 633.226 1015.75 633.27 1008.57 z"/>
<path transform="translate(0,0)" fill="rgb(0,0,0)" fill-opacity="0.0117647" d="M 626.061 1034.41 L 627.358 1034.22 C 628.306 1040.38 628.078 1046.23 628.08 1052.46 L 626.523 1050.98 C 625.199 1047.61 626.069 1038.87 626.061 1034.41 z"/>
<path transform="translate(0,0)" fill="rgb(0,0,0)" d="M 1355.03 875.029 L 1437.07 875.144 C 1435.39 894.712 1436.35 923.487 1436.74 943.011 C 1437.03 964.306 1437.11 985.604 1436.99 1006.9 L 1437.49 1354.28 C 1437 1356.44 1437.5 1355.46 1435.89 1357.16 C 1428.58 1358.36 1407.1 1357.57 1398.19 1357.5 C 1397.5 1352.48 1397.1 1347.14 1396.65 1342.11 C 1392.87 1304.96 1384.06 1260.92 1369.25 1226.78 C 1354.87 1193.64 1354.83 1192.31 1354.65 1156.56 L 1354.98 1087.93 C 1354.59 1016.96 1354.61 945.995 1355.03 875.029 z M 1387.23 1043.33 C 1391.14 1047.27 1403.25 1059.97 1407.07 1062.53 L 1409.07 1062.39 L 1412.55 1058.75 C 1412.32 1051.33 1400.51 1042.31 1394.92 1036.33 C 1401.86 1029.74 1410.31 1023.85 1418.12 1018.21 C 1404.7 1007.4 1390.79 997.213 1376.43 987.688 C 1376.06 999.174 1373.38 1064.11 1379.61 1069.29 C 1379.85 1069.49 1380.15 1069.63 1380.42 1069.8 C 1389.11 1065.62 1387.05 1051.79 1387.23 1043.33 z M 1408.32 1144.13 C 1399.48 1136.01 1390.82 1127.71 1382.33 1119.23 L 1374.63 1126.36 C 1382.61 1133.98 1390.7 1141.86 1398.76 1149.35 C 1401.6 1151.93 1404.84 1155.03 1407.82 1157.37 C 1407.63 1164.02 1406.25 1181.12 1408.91 1185.79 C 1412.07 1187.58 1412.08 1187.36 1415.59 1187.1 L 1417.67 1185.8 C 1418.59 1178.84 1418.51 1118.31 1417.5 1112.68 C 1413.22 1111.73 1412.59 1111.86 1408.12 1112.09 C 1408.08 1122.77 1408.14 1133.45 1408.32 1144.13 z"/>
<path transform="translate(0,0)" fill="rgb(0,0,0)" d="M 1386.95 1008.34 C 1390.08 1010.14 1397.97 1014.85 1398.43 1018.37 C 1398.65 1020.02 1397.78 1020.19 1396.27 1022.06 L 1387.11 1028.3 C 1386.81 1021.82 1386.94 1014.87 1386.95 1008.34 z"/>
<path transform="translate(0,0)" fill="rgb(0,0,0)" d="M 1453.1 984.014 C 1496.92 1000.3 1540.22 1020.46 1583.8 1037.49 C 1596.48 1042.45 1612.51 1048.15 1624.22 1054.67 C 1622.36 1085.64 1618.17 1116.43 1611.7 1146.77 C 1611.09 1149.8 1611.15 1150.73 1609.52 1153.37 C 1598.48 1155.23 1549.08 1153.7 1534.79 1153.56 C 1507.76 1153.29 1479.59 1154.23 1452.78 1154 C 1453.04 1099.46 1450.54 1037.52 1453.1 984.014 z M 1542.6 1126.84 C 1546.21 1127.29 1549.64 1127.77 1553.27 1127.95 C 1553.63 1111.81 1553.09 1092.16 1554 1076.68 C 1560.11 1080.51 1563.48 1083.11 1569.13 1087.62 C 1573.13 1084.47 1579.48 1079.24 1583.58 1076.61 L 1583.21 1093.25 C 1583.16 1102.1 1581.95 1119.15 1585.69 1126.42 C 1588.81 1128.59 1587.04 1128 1591.35 1127.6 C 1595.97 1123.18 1594.73 1066.87 1594.35 1056.91 C 1585.74 1062.04 1577.25 1067.35 1568.86 1072.83 C 1561.61 1067.28 1550.97 1059.84 1542.91 1055.27 C 1542.34 1077.16 1541.55 1104.98 1542.6 1126.84 z M 1508.69 1037.72 C 1503.16 1042.61 1497.61 1047.46 1492.04 1052.28 C 1491.7 1048.98 1491.59 1042.88 1489.73 1040.58 C 1487.12 1039.5 1486.31 1038.87 1483.52 1038.99 C 1477.84 1044.42 1480.7 1101.39 1481.04 1112.76 C 1484.02 1112.97 1488.16 1113.14 1491.05 1113.53 C 1491.02 1108.5 1490.04 1089.92 1492.65 1087.1 C 1497.85 1083.22 1521.12 1067.51 1521.97 1063.03 C 1519.83 1059.12 1521.34 1060.2 1517.95 1058.87 C 1507.7 1060.31 1498.94 1074.14 1491.9 1072.27 C 1488.94 1059.37 1513.19 1052.49 1513.88 1042.64 C 1512.02 1039.58 1511.63 1039.62 1508.69 1037.72 z"/>
<path transform="translate(0,0)" fill="rgb(0,0,0)" d="M 585.021 984.131 C 586.649 986.673 586.218 1140.4 586.237 1154.24 C 537.088 1153.5 485.865 1154.83 436.494 1154.93 C 435.443 1151.82 434.464 1147.5 433.618 1144.24 C 427.328 1113.86 423.305 1083.05 421.581 1052.07 C 443.013 1041.99 468.623 1031.86 490.687 1022.71 C 521.982 1009.49 553.429 996.629 585.021 984.131 z M 508.999 1069.13 C 515.465 1075.82 524.855 1085.06 530.372 1092.09 C 524.139 1099.05 517.758 1106.05 511.619 1113.08 C 513.935 1115.7 516.286 1118.49 518.807 1120.88 C 522.891 1116.32 533.608 1103.06 538.567 1101.9 C 544.05 1107.53 550.945 1115.05 556.557 1120.28 C 559.763 1117.91 562.268 1116.22 565.078 1113.41 C 558.222 1106.23 551.508 1098.92 544.939 1091.49 C 551.845 1084.29 559.626 1076.47 566.28 1069.15 C 561.67 1063.97 543.131 1042.18 538.103 1039.61 C 528.239 1049.29 518.536 1059.13 508.999 1069.13 z M 456.149 1056.9 C 454.732 1065.08 454.465 1124.47 457.108 1130.83 C 460.887 1132.33 459.024 1132.2 462.888 1131.38 C 468.611 1125.71 465.686 1101.62 465.911 1092.75 C 465.904 1087.51 465.811 1082.1 466.022 1076.87 C 472.012 1082.05 478.673 1088.08 484.925 1092.78 C 486.746 1090.46 488.725 1087.82 490.635 1085.61 C 480.416 1076.12 467.715 1064.63 456.149 1056.9 z"/>
<path transform="translate(0,0)" fill="rgb(0,0,0)" d="M 537.856 1056.55 C 542.073 1058.4 548.254 1065.92 551.433 1069.51 C 547.827 1073.82 542.634 1079.08 538.706 1083.29 C 533.501 1078.68 529.768 1074.51 525.081 1069.39 L 537.856 1056.55 z"/>
<path transform="translate(0,0)" fill="rgb(0,0,0)" d="M 1232.19 1375.45 C 1263.43 1374.5 1306.69 1374.12 1337.95 1375.17 L 1337.81 1537.44 C 1327.29 1544.44 1315.5 1550.79 1304.45 1557.03 C 1284.95 1567.55 1254.03 1583.14 1232.91 1588.96 C 1231.64 1518.08 1232.85 1446.45 1232.19 1375.45 z"/>
<path transform="translate(0,0)" fill="rgb(0,0,0)" d="M 972.066 777.039 L 1066.55 777.124 C 1066.81 785.324 1064.65 807.256 1074.42 809.143 C 1109.52 815.924 1148.05 818.501 1182.19 829.38 C 1180.52 837.589 1177.23 856.573 1172.26 862.274 C 1164.78 863.274 1125.21 854.877 1114.86 853.101 C 1099.42 850.401 1083.87 848.396 1068.25 847.094 C 1017.96 843.304 977.132 845.131 926.983 853.338 C 906.776 856.645 886.056 861.506 866.045 864.267 C 862.138 851.764 860.007 842.635 858.326 829.631 C 878.943 822.957 905.674 819.055 927.065 815.648 C 940.999 813.429 954.376 812.789 968.158 808.815 C 972.97 802.354 972.047 785.144 972.066 777.039 z"/>
<path transform="translate(0,0)" fill="rgb(0,0,0)" d="M 1527.93 755.564 C 1531.08 764.7 1535.91 791.537 1538.12 802.237 C 1543.45 827.657 1548.98 853.031 1554.73 878.357 C 1540.07 895.051 1540.82 904.978 1561.09 915.855 C 1559.88 933.66 1560.63 951.088 1561.15 968.888 C 1576.11 977.396 1608.31 990.064 1625.58 997.895 C 1625.56 1010.29 1625.33 1022.69 1624.87 1035.08 C 1608.07 1029.94 1577.32 1016.12 1560.66 1008.77 C 1525.91 995.922 1488.12 978.989 1452.56 965.329 C 1452.27 952.513 1452.33 939.691 1452.75 926.878 C 1467.33 931.084 1481.98 937.457 1496.07 943.214 L 1495.1 914.728 C 1514.57 904.233 1517.25 894.857 1501.94 878.429 C 1506.23 850.74 1513.91 822.406 1519.04 794.756 C 1521.39 782.091 1524.34 767.854 1527.93 755.564 z"/>
<path transform="translate(0,0)" fill="rgb(0,0,0)" d="M 509.165 755.592 C 511.489 761.414 516.144 784.428 517.78 792.029 L 535.619 878.389 C 521.862 895.227 522.427 904.692 542.049 915.292 L 542.598 943.844 C 556.892 937.569 571.347 931.669 585.949 926.149 C 585.856 939.27 586.025 952.569 586.085 965.707 C 553.924 977.097 519.443 992.219 487.763 1005.35 C 465.335 1014.26 443.003 1023.42 420.771 1032.81 C 420.973 1020.25 420.278 1007.89 420.555 995.044 C 438.492 986.111 458.08 978.024 476.395 969.326 L 476.758 915.517 C 495.161 905.515 498.662 894.857 483.695 879.05 C 489.954 844.873 500.332 788.119 509.165 755.592 z"/>
<path transform="translate(0,0)" fill="rgb(0,0,0)" d="M 1370.4 1374.47 C 1385.23 1374.35 1441.64 1372.06 1450.9 1378.61 C 1455.23 1386.59 1453.1 1432.58 1452.95 1444.5 C 1440.3 1458.74 1417.16 1478.86 1402.58 1491.17 C 1391.53 1500.36 1367.43 1519.06 1354.99 1525.33 C 1354.98 1480.42 1356.94 1435.59 1355.34 1390.67 C 1355.15 1385.27 1355.1 1380.16 1355.57 1374.77 L 1370.4 1374.47 z"/>
<path transform="translate(0,0)" fill="rgb(0,0,0)" d="M 610.382 1375.52 C 634.943 1374.94 659.514 1374.85 684.079 1375.26 C 684.747 1412.89 683.851 1450.8 684.148 1488.44 C 684.231 1499.03 684.171 1510.56 683.291 1521.09 L 669.805 1512.26 C 649.544 1497.27 602.61 1458.8 587.352 1439.2 C 587.063 1426.87 585.649 1387.57 589.561 1378.48 C 593.78 1374.64 604.407 1375.57 610.382 1375.52 z"/>
<path transform="translate(0,0)" fill="rgb(0,0,0)" d="M 1453.27 1262.23 L 1575.27 1262.07 C 1568.89 1282.45 1553.88 1309.6 1543.23 1328.43 C 1539.01 1337.45 1532.56 1348.92 1527.3 1357.22 C 1507.11 1357.26 1472.16 1356.29 1453.08 1357.87 C 1453.44 1350.95 1453.23 1344.03 1453.16 1337.1 C 1452.91 1312.15 1453.82 1287.18 1453.27 1262.23 z"/>
<path transform="translate(0,0)" fill="rgb(0,0,0)" d="M 470.564 1262.87 L 586.225 1262.81 C 585.355 1293.39 586.244 1326.33 585.949 1357.36 C 565.311 1358.11 540.134 1357.52 519.332 1357.34 C 501.038 1325.69 483.676 1297.63 470.564 1262.87 z"/>
<path transform="translate(0,0)" fill="rgb(0,0,0)" d="M 1019.21 561.66 C 1023.54 576.992 1027.39 595.587 1031.14 611.341 L 1053.69 705.934 C 1022.81 735.351 1059.83 747.766 1054.85 759.484 C 1048.05 763.591 1021.65 761.736 1012.25 761.508 C 1005.26 761.662 998.442 761.522 991.457 761.955 L 990.716 764.879 C 990.019 762.652 990.392 763.425 988.907 761.601 C 986.065 762.101 986.057 762.367 983.441 761.339 C 974.145 745.032 1016.73 739.549 985.607 706.98 C 990.011 680.458 998.948 648.751 1004.6 621.948 C 1007.14 609.912 1015.34 570.609 1019.21 561.66 z"/>
<path transform="translate(0,0)" fill="rgb(0,0,0)" d="M 700.302 1375.5 C 714.146 1374.89 731.335 1375.75 746.066 1375.44 C 744.965 1436.19 747.195 1498.44 745.557 1559.16 C 729.08 1550.54 716.22 1543.39 700.744 1533.1 C 699.571 1515.24 700.283 1489.71 700.189 1471.24 C 700.029 1439.74 699.575 1406.92 700.302 1375.5 z"/>
<path transform="translate(0,0)" fill="rgb(0,0,0)" d="M 836.878 834.286 C 841.474 833.983 841.366 833.24 844.732 835.076 C 850.268 843.211 850.147 856.196 852.25 866.797 C 840.794 871.942 813.779 878.889 800.581 883.004 C 771.025 892.243 741.739 902.322 712.757 913.229 L 699.073 918.196 C 698.903 905.394 698.88 892.591 699.005 879.788 C 746.323 864.529 786.083 846.547 836.878 834.286 z"/>
<path transform="translate(0,0)" fill="rgb(0,0,0)" d="M 1193.78 833.501 C 1233.02 839.08 1301.23 865.979 1339.91 879.906 C 1339.99 886.189 1340.76 911.493 1338.79 915.577 L 1336.25 916.007 C 1309.18 906.663 1281.85 896.645 1254.76 887.676 C 1233.08 880.501 1209.72 873.978 1187.76 867.262 C 1188.45 856.707 1191.25 843.767 1193.78 833.501 z"/>
<path transform="translate(0,0)" fill="rgb(0,0,0)" d="M 643.258 659.635 C 646.001 667.047 651.275 693.672 653.171 702.48 C 660.712 736.123 667.477 769.936 673.46 803.892 C 666.66 811.053 665.136 813.652 661.991 823.003 L 643.5 823.241 C 637.173 823.362 630.411 823.196 624.046 823.152 C 620.536 814.315 619.19 811.709 612.268 804.768 C 618.051 775.534 624.072 746.348 630.329 717.213 C 634.188 698.903 638.218 677.356 643.258 659.635 z"/>
<path transform="translate(0,0)" fill="rgb(0,0,0)" d="M 1396.1 660.61 C 1399.6 664.07 1423.05 787.454 1426.45 804.165 C 1421.35 811.123 1419.05 814.981 1416.01 822.877 L 1396.01 822.963 L 1377.26 822.807 C 1374.3 813.084 1373.41 811.696 1366 804.721 C 1368.47 788.978 1373.14 769.114 1376.45 753.325 L 1396.1 660.61 z"/>
<path transform="translate(0,0)" fill="rgb(0,0,0)" d="M 521.383 1169.04 C 543.056 1168.87 564.73 1168.89 586.402 1169.09 C 586.644 1179.42 588.399 1243.39 585.307 1248.2 L 582.748 1248.38 C 573.996 1248.78 522.161 1250.85 520.953 1244.2 C 518.487 1230.61 518 1182.51 521.383 1169.04 z"/>
<path transform="translate(0,0)" fill="rgb(0,0,0)" d="M 1453.04 1169.02 C 1474.34 1168.83 1495.27 1168.52 1516.58 1169.28 C 1518.52 1197.48 1519.44 1217.57 1516.71 1245.73 C 1511.78 1250.18 1462.91 1247.89 1453.01 1247.73 C 1452.86 1221.5 1452.87 1195.26 1453.04 1169.02 z"/>
<path transform="translate(0,0)" fill="rgb(0,0,0)" d="M 1569.44 1168.45 C 1581.96 1168.25 1594.48 1168.37 1607 1168.81 C 1601.59 1190.05 1592.34 1225.84 1581.91 1246.3 C 1580.94 1248.2 1576.72 1247.84 1574.25 1247.98 C 1568.27 1248.05 1534.89 1249.67 1534.33 1245 C 1532.41 1229 1530.73 1185.7 1534.73 1171 C 1539.6 1167.89 1562.25 1168.67 1569.44 1168.45 z"/>
<path transform="translate(0,0)" fill="rgb(0,0,0)" d="M 439.178 1168.68 C 451.662 1169.13 492.718 1166.81 501.978 1171.09 C 508.952 1179.87 504.856 1233.07 503.864 1246.31 C 498.655 1249.07 473.53 1248.09 465.327 1248.53 C 456.431 1231.16 442.473 1187.65 439.178 1168.68 z"/>
<path transform="translate(0,0)" fill="rgb(0,0,0)" d="M 1340.62 836.062 C 1377.54 835.791 1414.47 835.812 1451.39 836.123 C 1449.45 843.344 1447.37 850.528 1445.16 857.671 L 1443.86 859.75 C 1438.52 862.234 1359.41 861.267 1347.57 861.015 C 1345.72 852.479 1343.15 844.407 1340.62 836.062 z"/>
<path transform="translate(0,0)" fill="rgb(0,0,0)" d="M 616.13 836.475 L 698.525 836.628 L 690.572 861.255 C 684.669 861.587 678.782 861.605 672.869 861.684 L 594.464 861.813 L 587.725 836.913 C 597.035 836.595 606.78 836.607 616.13 836.475 z"/>
</svg>