<svg version="1.1" xmlns="http://www.w3.org/2000/svg" style="display: block;" viewBox="0 0 2048 2048" width="1024" height="1024" preserveAspectRatio="none">
<path transform="translate(0,0)" fill="rgb(0,0,0)" d="M 1304.61 211.703 C 1307.45 218.609 1315.79 345.8 1316.99 361.027 L 1329.57 518.31 C 1331.46 541.198 1334.74 570.493 1334.65 592.902 C 1334.62 599.499 1323.34 628.897 1320.2 637.848 L 1295.32 709.78 L 1193.54 1005.79 C 1181.49 1040.69 1169.66 1075.67 1158.05 1110.73 C 1152.93 1126.22 1147.83 1142.14 1142.61 1157.63 C 1137.52 1172.71 1158.37 1206.64 1155.79 1219.11 C 1150.43 1224.04 1132.44 1221.54 1122.38 1222.78 C 1114.63 1223.68 1107.06 1225.75 1099.93 1228.92 C 1073.91 1240.65 1066.26 1259.65 1057.07 1284.45 C 1060.34 1291.95 1063.7 1299.41 1067.16 1306.82 C 1098.58 1319.34 1135.83 1329.48 1168.15 1341.81 C 1186.88 1335.62 1206.82 1330.22 1225.79 1324.38 C 1231.3 1350.6 1237.09 1376.76 1243.14 1402.87 C 1229.67 1409.04 1182.94 1426.44 1169.99 1429.99 C 1151.47 1425.28 1115.97 1412.04 1096.37 1405.45 C 1076.94 1398.92 1038.73 1387.46 1021.24 1379.81 L 1013.38 1404.31 C 1005.44 1408.76 988.156 1419 980.416 1421.45 C 976.086 1435.44 969.954 1448.69 965.55 1462.51 C 961.69 1474.63 960.127 1489.31 953.871 1500.43 C 949.043 1509.01 948.634 1517.82 945.703 1527.09 C 941.218 1541.26 936.236 1555.4 931.597 1569.55 C 929.869 1574.82 923.085 1587.18 923.297 1591.56 C 923.401 1593.71 923.747 1595.8 923.182 1597.92 C 920.232 1608.98 914.46 1619.78 910.801 1630.69 C 908.416 1637.8 906.861 1645.19 904.528 1652.33 C 901.812 1660.64 898.234 1668.67 895.64 1677.02 C 893.748 1683.11 892.595 1689.45 890.643 1695.49 C 887.628 1704.82 893.375 1734.1 894.527 1745.22 C 898.866 1746.63 902.92 1748.35 907.145 1750.06 C 901.552 1764.25 895.852 1783.43 890.521 1798.35 C 866.672 1811.76 843.036 1825.53 819.62 1839.68 C 794.627 1829.74 761.803 1819.81 735.797 1811.24 C 733.807 1806.59 731.85 1801.93 729.927 1797.25 C 721.317 1776.57 712.59 1755.94 703.748 1735.36 C 709.104 1718.47 714.451 1702.99 720.366 1686.3 C 724.149 1687.05 729.332 1688.75 733.146 1689.88 C 737.582 1683.31 754.652 1664 761.31 1660.89 L 762.792 1660.22 C 771.363 1642.81 783.547 1599.66 789.897 1580.35 L 854.902 1378.9 C 846.818 1374.48 839.245 1354.48 836.012 1345.46 C 837.742 1338.53 841.689 1327.68 844.011 1320.6 C 833.203 1317.8 822.108 1313.97 811.503 1310.34 C 772.394 1296.95 732.992 1284.1 694.024 1270.34 C 679.382 1249.61 664.32 1229.28 650.001 1208.3 C 667.021 1191.95 693.799 1170.44 712.244 1154.81 C 723.414 1167.9 736.471 1186.15 747.219 1200.14 C 762.146 1204.47 780.187 1211.18 795.34 1216.12 C 809.214 1220.65 833.337 1228.07 845.744 1234.15 C 853.618 1228.45 856.404 1226.85 865.18 1222.91 C 877.411 1189.07 877.666 1159.17 849.597 1131.92 C 842.799 1125.33 830.518 1121.2 826.404 1112.3 C 826.747 1099.82 861.524 1086.63 868.382 1076.49 C 873.837 1068.42 881.502 1040.95 884.828 1030.43 L 1009.92 626.119 C 1017.71 601.615 1025.31 577.051 1032.72 552.428 C 1036.71 538.985 1042.6 516.368 1047.84 504.3 C 1049.13 501.327 1068.47 479.862 1072.23 475.592 L 1120.37 420.636 C 1161.81 372.549 1203.68 324.821 1245.95 277.457 C 1265.34 255.541 1284.37 232.773 1304.61 211.703 z"/>
<path transform="translate(0,0)" fill="rgb(254,254,254)" d="M 1293.55 245.775 C 1295.29 253.595 1296.36 273.918 1297.03 282.659 L 1302.52 352.961 L 1316.06 522.344 C 1317.77 543.555 1320.18 567.875 1320.9 588.997 C 1321.19 597.589 1308.99 628.511 1305.37 638.863 L 1269.97 740.347 L 1178.86 1005.56 C 1161.32 1056.96 1142.53 1110.12 1126.62 1161.93 C 1130.41 1178.78 1133.3 1191.19 1139.29 1207.61 C 1086.25 1209.43 1063.23 1228.96 1045.4 1277.3 C 1018.45 1267.81 990.493 1259.1 963.239 1249.65 C 977.893 1210.4 992.425 1163.16 1005.59 1122.92 L 1073.5 915.138 L 1248.51 377.397 L 1229.83 399.577 L 1152.71 489.665 C 1146.85 496.528 1119.19 528.059 1115.81 534.618 C 1112.23 541.557 1100.94 579.301 1097.79 589.372 L 1061.75 703.301 L 974.999 973.882 C 959.642 1021.47 942.35 1071.57 928.25 1119.3 C 911.083 1122.01 893.872 1124.44 876.624 1126.58 C 896.466 1162.78 898.139 1185.68 880.982 1223.81 C 884.082 1205.27 889.585 1196.31 886.217 1174.9 C 881.62 1145.68 869.021 1128.66 846.114 1111.28 C 886.554 1082.43 883.132 1082.81 897.97 1035.72 L 918.118 971.63 L 1019.22 645.653 L 1046.63 555.582 C 1050.8 541.818 1056.57 515.059 1065.57 504.837 C 1084.02 483.909 1102.65 462.909 1121.01 441.876 C 1177.78 375.858 1235.29 310.486 1293.55 245.775 z"/>
<path transform="translate(0,0)" fill="rgb(254,254,254)" d="M 757.088 1213.75 C 787.637 1223.75 818.337 1234.77 848.885 1245.01 C 857.002 1240.27 863.487 1236.33 871.262 1231.05 C 886.182 1235.35 902.981 1241.51 917.87 1246.48 L 1001.81 1274.53 C 1016.19 1279.37 1033.81 1285.82 1048.22 1289.79 C 1052.1 1299.08 1054.63 1305.39 1057.62 1315.11 C 1087.5 1324.67 1117.22 1334.73 1146.77 1345.3 L 1148.53 1346.33 C 1145.17 1349.2 1112.06 1356.89 1107.04 1355.73 C 1093.24 1352.54 1078.4 1346.93 1064.85 1342.33 L 988.596 1316.72 L 849.503 1270.17 C 830.187 1263.63 805.542 1256.06 787.277 1247.75 C 779.486 1244.2 762.879 1221.31 757.088 1213.75 z"/>
<path transform="translate(0,0)" fill="rgb(254,254,254)" d="M 853.779 1324.45 C 903.058 1343.77 961.048 1358.28 1010.64 1377.35 C 1008.45 1384.25 1006.31 1391.16 1004.23 1398.1 C 1000.79 1399.62 997.187 1401.43 993.774 1403.06 L 980.357 1410.98 C 939.843 1396.72 899.204 1382.8 858.445 1369.25 C 855.131 1361.27 850.521 1352.35 846.695 1344.49 C 849.659 1337.22 851.467 1331.97 853.779 1324.45 z"/>
<path transform="translate(0,0)" fill="rgb(254,254,254)" d="M 726.856 1698.6 C 741.634 1705.14 769.467 1713.63 785.728 1719.06 L 894.887 1755.93 C 890.57 1766.79 887.038 1778.1 883.389 1789.21 C 867.964 1783.14 848.455 1777.01 832.576 1771.56 L 715.264 1731.81 C 719.43 1720.85 723.295 1709.77 726.856 1698.6 z"/>
<path transform="translate(0,0)" fill="rgb(109,109,108)" d="M 843.924 1435.63 C 853.333 1447.5 874.818 1484.42 883.941 1499.03 L 863.278 1561.37 C 860.244 1558.85 827.524 1505.31 823.597 1498.23 C 830.344 1477.18 836.696 1456.55 843.924 1435.63 z"/>
<path transform="translate(0,0)" fill="rgb(109,109,108)" d="M 861.155 1380.4 C 868.025 1383.59 875.875 1386.19 883.068 1388.75 C 886.699 1396.56 902.27 1421.1 907.334 1428.46 C 900.364 1446.45 894.921 1467.54 887.997 1486.39 C 886.902 1489.29 887.834 1488.56 885.804 1489.7 C 882.79 1486.33 876.005 1474.91 873.074 1470.23 C 863.904 1455.87 855.022 1441.33 846.434 1426.61 C 851.594 1411.29 856.501 1395.88 861.155 1380.4 z"/>
<path transform="translate(0,0)" fill="rgb(254,254,254)" d="M 762.771 1672.65 C 800.654 1685.52 843.715 1699.33 880.85 1713.16 L 883.403 1740.32 L 869.563 1735.56 C 827.582 1722.37 785.466 1707.18 743.528 1693.44 C 749.168 1686.75 756.694 1679.13 762.771 1672.65 z"/>
<path transform="translate(0,0)" fill="rgb(109,109,108)" d="M 801.107 1568.65 C 814.425 1588.55 827.37 1610.56 841.142 1629.79 C 834.98 1646.69 829.247 1665.31 823.532 1682.5 C 818.162 1678.21 788.648 1629.95 783.37 1620.76 C 789.204 1602.65 795.595 1587.69 801.107 1568.65 z"/>
<path transform="translate(0,0)" fill="rgb(109,109,108)" d="M 820.891 1507.76 C 831 1520.44 850.798 1554.24 860.847 1569.6 C 854.276 1586.75 849.439 1604.43 843.328 1621.8 C 832.747 1607.11 812.116 1575.03 803.694 1559.91 C 808.251 1543.8 815.472 1523.95 820.891 1507.76 z"/>
<path transform="translate(0,0)" fill="rgb(109,109,108)" d="M 781.399 1630.05 C 786.327 1637.4 807.733 1670.08 810.841 1677.44 C 808.659 1677.98 805.76 1676.38 803.143 1675.46 C 792.115 1671.29 781.366 1667.86 770.155 1664.26 C 773.977 1652.88 777.725 1641.48 781.399 1630.05 z"/>
<path transform="translate(0,0)" fill="rgb(109,109,108)" d="M 891.783 1391.53 C 900.259 1394.55 908.823 1397.32 917.465 1399.83 C 915.017 1405.34 913.196 1411.03 911.232 1416.73 C 910.271 1419.39 911.13 1418.63 909.219 1419.79 C 905.088 1416.11 895.251 1397.66 891.783 1391.53 z"/>
</svg>